<svg xmlns="http://www.w3.org/2000/svg" xmlns:xlink="http://www.w3.org/1999/xlink" viewBox="0 0 48 48" width="48px" height="48px"><defs><radialGradient id="RhTrBlPNK9DGAspMrYtajM" cx="-3491.998" cy="7.322" r=".308" gradientTransform="translate(3523.571)" xlink:href="#RhTrBlPNK9DGAspMrYtajg"/><radialGradient id="RhTrBlPNK9DGAspMrYtaja" cx="-142.553" cy="45.272" r="2.749" gradientTransform="matrix(-1 0 0 .814 -103.429 8.416)" gradientUnits="userSpaceOnUse"><stop offset=".002" stop-color="#2c343a"/><stop offset="1" stop-color="#16181c"/></radialGradient><radialGradient id="RhTrBlPNK9DGAspMrYtajp" cx="-5759.879" cy="45.272" r="2.749" gradientTransform="matrix(1 0 0 .814 5787.523 8.416)" xlink:href="#RhTrBlPNK9DGAspMrYtaja"/><radialGradient id="RhTrBlPNK9DGAspMrYtajq" cx="-5758.746" cy="46.918" r="2.656" gradientTransform="translate(5787.523)" xlink:href="#RhTrBlPNK9DGAspMrYtajb"/><radialGradient id="RhTrBlPNK9DGAspMrYtajc" cx="-6148.057" cy="38.625" r="5.239" gradientTransform="rotate(-92.961 -3050.839 -2903.393) scale(1 .545)" gradientUnits="userSpaceOnUse"><stop offset="0" stop-color="#3b3f72"/><stop offset=".705" stop-color="#22346c"/><stop offset="1" stop-color="#182657"/></radialGradient><radialGradient id="RhTrBlPNK9DGAspMrYtajr" cx="-6148.53" cy="-39.139" r="4.536" gradientTransform="matrix(-.054 -1.055 .635 -.036 -278.481 -6453.686)" xlink:href="#RhTrBlPNK9DGAspMrYtajc"/><radialGradient id="RhTrBlPNK9DGAspMrYtajs" cx="-140.555" cy="38.625" r="5.239" gradientTransform="matrix(.052 -.999 -.545 -.028 65.422 -100.654)" xlink:href="#RhTrBlPNK9DGAspMrYtajc"/><radialGradient id="RhTrBlPNK9DGAspMrYtajt" cx="-141.028" cy="-39.139" r="4.536" gradientTransform="matrix(.054 -1.055 -.635 -.036 20.377 -117.336)" xlink:href="#RhTrBlPNK9DGAspMrYtajc"/><radialGradient id="RhTrBlPNK9DGAspMrYtaju" cx="-136.957" cy="26.055" r="3.59" gradientTransform="matrix(-1 0 0 .779 -103.429 5.748)" xlink:href="#RhTrBlPNK9DGAspMrYtajc"/><radialGradient id="RhTrBlPNK9DGAspMrYtaje" cx="-6133.611" cy="-8.171" r="1.474" gradientTransform="matrix(-.33 .944 -.643 -.225 -2004.47 5818.577)" gradientUnits="userSpaceOnUse"><stop offset=".629" stop-color="#fac600"/><stop offset=".737" stop-color="#f7c100"/><stop offset=".871" stop-color="#f0b100"/><stop offset=".999" stop-color="#e69c00"/></radialGradient><radialGradient id="RhTrBlPNK9DGAspMrYtajd" cx="-6122.906" cy="19.039" r="3.771" gradientTransform="rotate(-73.932 -3043.07 -4070.285) scale(1 .616)" gradientUnits="userSpaceOnUse"><stop offset="0" stop-color="#fcd854"/><stop offset=".629" stop-color="#fac600"/><stop offset=".737" stop-color="#f7c100"/><stop offset=".871" stop-color="#f0b100"/><stop offset=".999" stop-color="#e69c00"/></radialGradient><radialGradient id="RhTrBlPNK9DGAspMrYtajv" cx="-6129.145" cy="104.514" r="5.68" gradientTransform="matrix(.355 -.861 .474 .186 2149.829 -5273.677)" xlink:href="#RhTrBlPNK9DGAspMrYtajd"/><radialGradient id="RhTrBlPNK9DGAspMrYtajw" cx="-6136.002" cy="93.574" r="3.718" gradientTransform="matrix(.381 -.849 .576 .264 2306.073 -5205.368)" xlink:href="#RhTrBlPNK9DGAspMrYtajd"/><radialGradient id="RhTrBlPNK9DGAspMrYtajx" cx="-142.58" cy="30.144" r="1.474" gradientTransform="matrix(-.145 .989 .674 .099 -1.891 168.226)" xlink:href="#RhTrBlPNK9DGAspMrYtaje"/><radialGradient id="RhTrBlPNK9DGAspMrYtajy" cx="-143.273" cy="19.039" r="3.771" gradientTransform="matrix(-.277 -.961 -.592 .17 11.457 -121.883)" xlink:href="#RhTrBlPNK9DGAspMrYtajd"/><radialGradient id="RhTrBlPNK9DGAspMrYtajz" cx="-145.113" cy="127.967" r="5.68" gradientTransform="matrix(-.114 -.924 -.506 .054 89.824 -117.249)" xlink:href="#RhTrBlPNK9DGAspMrYtajd"/><radialGradient id="RhTrBlPNK9DGAspMrYtajA" cx="-144.971" cy="134.757" r="3.718" gradientTransform="matrix(.056 -.929 -.632 -.033 134.895 -100.083)" xlink:href="#RhTrBlPNK9DGAspMrYtajd"/><radialGradient id="RhTrBlPNK9DGAspMrYtajB" cx="-136.523" cy="16.306" r="13.797" gradientTransform="matrix(-1 0 0 .491 -103.429 8.296)" gradientUnits="userSpaceOnUse"><stop offset=".002" stop-color="#9254e1"/><stop offset=".621" stop-color="#7843b3"/><stop offset=".977" stop-color="#6c35aa"/></radialGradient><radialGradient id="RhTrBlPNK9DGAspMrYtajC" cx="-136.523" cy="16.306" r="13.797" gradientTransform="matrix(-1 0 0 .491 -103.429 8.296)" gradientUnits="userSpaceOnUse"><stop offset="0" stop-color="#2e0e6f" stop-opacity="0"/><stop offset=".797" stop-color="#220d4e" stop-opacity=".059"/><stop offset=".997" stop-color="#1a0c38" stop-opacity=".1"/></radialGradient><radialGradient id="RhTrBlPNK9DGAspMrYtajas" cx="12.637" cy="7.227" r=".308" xlink:href="#RhTrBlPNK9DGAspMrYtajg"/><radialGradient id="RhTrBlPNK9DGAspMrYtajD" cx="-136.851" cy="12.64" r="1.899" gradientTransform="matrix(-1 0 0 1 -103.429 0)" xlink:href="#RhTrBlPNK9DGAspMrYtajd"/><radialGradient id="RhTrBlPNK9DGAspMrYtajj" cx="-136.796" cy="11.442" r="2.516" data-name="New Gradient Swatch 1" gradientTransform="matrix(-1 0 0 .521 -103.429 5.476)" gradientUnits="userSpaceOnUse"><stop offset="0" stop-color="#764f2a" stop-opacity=".9"/><stop offset="1" stop-color="#764f2a" stop-opacity="0"/></radialGradient><radialGradient id="RhTrBlPNK9DGAspMrYtajE" cx="-136.825" cy="6.148" r="6.029" gradientTransform="matrix(-1 0 0 1.214 -103.429 -1.314)" gradientUnits="userSpaceOnUse"><stop offset=".595" stop-color="#251105"/><stop offset=".661" stop-color="#391f0b"/><stop offset=".797" stop-color="#6d421b"/><stop offset=".82" stop-color="#76481e"/><stop offset="1" stop-color="#d6863e"/></radialGradient><radialGradient id="RhTrBlPNK9DGAspMrYtajf" cx="-151.721" cy="36.131" r=".6" gradientTransform="matrix(-.994 .17 .446 2.108 -136.856 -42.761)" gradientUnits="userSpaceOnUse"><stop offset="0" stop-color="#f9d655"/><stop offset=".625" stop-color="#f8c400"/><stop offset=".737" stop-color="#f6c000"/><stop offset=".859" stop-color="#f0b300"/><stop offset=".984" stop-color="#e69d00"/><stop offset=".999" stop-color="#e49a00"/></radialGradient><radialGradient id="RhTrBlPNK9DGAspMrYtajF" cx="-3296.505" cy="36.131" r=".6" gradientTransform="matrix(.994 .17 -.446 2.108 3328.783 492.262)" xlink:href="#RhTrBlPNK9DGAspMrYtajf"/><radialGradient id="RhTrBlPNK9DGAspMrYtajG" cx="66.723" cy="-7.414" r="4.578" gradientTransform="matrix(-.873 0 0 1.095 91.648 14.787)" gradientUnits="userSpaceOnUse"><stop offset="0" stop-color="#f9d655"/><stop offset=".629" stop-color="#f8c400"/><stop offset=".737" stop-color="#f5bf00"/><stop offset=".871" stop-color="#eeaf00"/><stop offset=".999" stop-color="#e49a00"/></radialGradient><radialGradient id="RhTrBlPNK9DGAspMrYtajH" cx="-1232.607" cy="684.366" r="2.716" gradientTransform="matrix(.011 1.038 -1.466 .017 1050.947 1271.444)" gradientUnits="userSpaceOnUse"><stop offset="0" stop-color="#b38658"/><stop offset=".232" stop-color="#926c41"/><stop offset=".474" stop-color="#7b572f"/><stop offset=".629" stop-color="#754f2a"/><stop offset=".734" stop-color="#714a25"/><stop offset=".865" stop-color="#623c1c"/><stop offset=".999" stop-color="#4b2a0e"/></radialGradient><radialGradient id="RhTrBlPNK9DGAspMrYtajI" cx="-136.825" cy="8.398" r=".823" gradientTransform="matrix(-1 -.011 -.006 .537 -103.371 2.377)" gradientUnits="userSpaceOnUse"><stop offset=".479" stop-color="#fccc24"/><stop offset=".673" stop-color="#fccc24" stop-opacity=".993"/><stop offset=".744" stop-color="#fccc24" stop-opacity=".966"/><stop offset=".794" stop-color="#fccb23" stop-opacity=".919"/><stop offset=".834" stop-color="#fbcb23" stop-opacity=".852"/><stop offset=".869" stop-color="#fbca22" stop-opacity=".764"/><stop offset=".899" stop-color="#faca22" stop-opacity=".656"/><stop offset=".927" stop-color="#f9c921" stop-opacity=".527"/><stop offset=".953" stop-color="#f8c820" stop-opacity=".378"/><stop offset=".976" stop-color="#f7c61e" stop-opacity=".207"/><stop offset=".997" stop-color="#f6c51d" stop-opacity=".025"/><stop offset="1" stop-color="#f6c51d" stop-opacity="0"/></radialGradient><radialGradient id="RhTrBlPNK9DGAspMrYtajJ" cx="-136.825" cy="153.704" r=".436" gradientTransform="matrix(-1 0 0 .558 -103.429 -77.319)" gradientUnits="userSpaceOnUse"><stop offset=".004" stop-color="#faedb7"/><stop offset=".103" stop-color="#faedb7" stop-opacity=".892"/><stop offset=".551" stop-color="#faedb7" stop-opacity=".417"/><stop offset=".859" stop-color="#faedb7" stop-opacity=".117"/><stop offset="1" stop-color="#faedb7" stop-opacity="0"/></radialGradient><radialGradient id="RhTrBlPNK9DGAspMrYtajl" cx="-136.818" cy="8.641" r=".657" gradientTransform="matrix(-.002 1 1.211 .003 22.631 145.436)" gradientUnits="userSpaceOnUse"><stop offset=".415" stop-opacity=".3"/><stop offset="1" stop-opacity="0"/></radialGradient><radialGradient id="RhTrBlPNK9DGAspMrYtajm" cx="-318.538" cy="62.672" r=".923" gradientTransform="matrix(-1.093 0 0 1.309 -314.657 -72.208)" gradientUnits="userSpaceOnUse"><stop offset=".696" stop-opacity=".2"/><stop offset="1" stop-opacity="0"/></radialGradient><radialGradient id="RhTrBlPNK9DGAspMrYtajn" cx="225.584" cy="204.189" r="1.425" gradientTransform="matrix(-.791 0 0 .477 211.81 -87.39)" gradientUnits="userSpaceOnUse"><stop offset=".572" stop-color="#fff" stop-opacity=".4"/><stop offset=".621" stop-color="#fff" stop-opacity=".376"/><stop offset=".689" stop-color="#fff" stop-opacity=".307"/><stop offset=".767" stop-color="#fff" stop-opacity=".193"/><stop offset=".853" stop-color="#fff" stop-opacity=".037"/><stop offset=".871" stop-color="#fff" stop-opacity="0"/></radialGradient><radialGradient id="RhTrBlPNK9DGAspMrYtajg" cx="116.2" cy="94.889" r="1.14" gradientTransform="matrix(-.833 0 0 .67 130.205 -53.753)" gradientUnits="userSpaceOnUse"><stop offset="0" stop-color="#15130e"/><stop offset=".999" stop-color="#121210"/></radialGradient><radialGradient id="RhTrBlPNK9DGAspMrYtajar" cx="297.76" cy="94.748" r="1.14" gradientTransform="matrix(.833 0 0 .67 -233.634 -53.753)" xlink:href="#RhTrBlPNK9DGAspMrYtajg"/><radialGradient id="RhTrBlPNK9DGAspMrYtajK" cx="-138.648" cy="7.322" r=".308" gradientTransform="matrix(-1 0 0 1 -103.429 0)" xlink:href="#RhTrBlPNK9DGAspMrYtajg"/><radialGradient id="RhTrBlPNK9DGAspMrYtajaq" cx="416.866" cy="203.991" r="1.425" gradientTransform="matrix(.791 0 0 .477 -315.24 -87.39)" xlink:href="#RhTrBlPNK9DGAspMrYtajn"/><radialGradient id="RhTrBlPNK9DGAspMrYtajb" cx="-141.42" cy="46.918" r="2.656" gradientTransform="matrix(-1 0 0 1 -103.429 0)" gradientUnits="userSpaceOnUse"><stop offset=".517" stop-color="#bfbfbf"/><stop offset=".765" stop-color="#acb0b4"/><stop offset=".992" stop-color="#96a0a7"/></radialGradient><radialGradient id="RhTrBlPNK9DGAspMrYtajN" cx="8.731" cy="45.183" r="2.749" gradientTransform="matrix(1 0 0 .814 0 8.399)" xlink:href="#RhTrBlPNK9DGAspMrYtaja"/><radialGradient id="RhTrBlPNK9DGAspMrYtajO" cx="9.365" cy="46.751" r="2.656" xlink:href="#RhTrBlPNK9DGAspMrYtajb"/><radialGradient id="RhTrBlPNK9DGAspMrYtajP" cx="-5911.164" cy="45.183" r="2.749" gradientTransform="matrix(-1 0 0 .814 -5890.952 8.399)" xlink:href="#RhTrBlPNK9DGAspMrYtaja"/><radialGradient id="RhTrBlPNK9DGAspMrYtajQ" cx="-5910.374" cy="46.736" r="2.656" gradientTransform="matrix(-1 0 0 1 -5890.952 0)" xlink:href="#RhTrBlPNK9DGAspMrYtajb"/><radialGradient id="RhTrBlPNK9DGAspMrYtajR" cx="-6299.35" cy="38.536" r="5.239" gradientTransform="matrix(.052 -.999 -.545 -.028 364.546 -6251.319)" xlink:href="#RhTrBlPNK9DGAspMrYtajc"/><radialGradient id="RhTrBlPNK9DGAspMrYtajS" cx="-6299.823" cy="-39.223" r="4.536" gradientTransform="matrix(.054 -1.055 -.635 -.036 334.474 -6613.352)" xlink:href="#RhTrBlPNK9DGAspMrYtajc"/><radialGradient id="RhTrBlPNK9DGAspMrYtajT" cx="10.737" cy="38.536" r="5.239" gradientTransform="rotate(-92.961 19.056 29.776) scale(1 .545)" xlink:href="#RhTrBlPNK9DGAspMrYtajc"/><radialGradient id="RhTrBlPNK9DGAspMrYtajU" cx="10.265" cy="-39.223" r="4.536" gradientTransform="matrix(-.054 -1.055 .635 -.036 35.722 42.147)" xlink:href="#RhTrBlPNK9DGAspMrYtajc"/><radialGradient id="RhTrBlPNK9DGAspMrYtajV" cx="14.335" cy="25.967" r="3.59" gradientTransform="matrix(1 0 0 .779 0 5.728)" xlink:href="#RhTrBlPNK9DGAspMrYtajc"/><radialGradient id="RhTrBlPNK9DGAspMrYtajW" cx="-5814.369" cy="100.721" r="1.474" gradientTransform="matrix(.386 .922 .629 -.263 2205.366 5419.491)" xlink:href="#RhTrBlPNK9DGAspMrYtaje"/><radialGradient id="RhTrBlPNK9DGAspMrYtajX" cx="-5833.049" cy="18.576" r="3.811" gradientTransform="matrix(-.277 -.961 -.592 .17 -1582.518 -5589.759)" xlink:href="#RhTrBlPNK9DGAspMrYtajd"/><radialGradient id="RhTrBlPNK9DGAspMrYtajY" cx="-5831.132" cy="60.749" r="5.587" gradientTransform="matrix(-.378 -.926 -.471 .192 -2151.593 -5387.269)" xlink:href="#RhTrBlPNK9DGAspMrYtajd"/><radialGradient id="RhTrBlPNK9DGAspMrYtajZ" cx="-5816.76" cy="210.615" r="3.718" gradientTransform="matrix(-.431 -.825 -.559 .298 -2366.336 -4830.712)" xlink:href="#RhTrBlPNK9DGAspMrYtajd"/><radialGradient id="RhTrBlPNK9DGAspMrYtajaa" cx="8.687" cy="30.056" r="1.474" gradientTransform="rotate(81.646 3.147 25.27) scale(1 .682)" xlink:href="#RhTrBlPNK9DGAspMrYtaje"/><radialGradient id="RhTrBlPNK9DGAspMrYtajab" cx="7.851" cy="18.576" r="3.811" gradientTransform="rotate(-73.932 12.591 15.009) scale(1 .616)" xlink:href="#RhTrBlPNK9DGAspMrYtajd"/><radialGradient id="RhTrBlPNK9DGAspMrYtajac" cx="5.944" cy="23.719" r="5.587" gradientTransform="matrix(.114 -.993 .506 .058 -6.735 28.243)" xlink:href="#RhTrBlPNK9DGAspMrYtajd"/><radialGradient id="RhTrBlPNK9DGAspMrYtajad" cx="6.296" cy="134.662" r="3.718" gradientTransform="matrix(-.056 -.929 .632 -.033 -78.506 40.338)" xlink:href="#RhTrBlPNK9DGAspMrYtajd"/><radialGradient id="RhTrBlPNK9DGAspMrYtajae" cx="14.77" cy="16.217" r="13.797" gradientTransform="matrix(1 0 0 .491 0 8.251)" gradientUnits="userSpaceOnUse"><stop offset=".002" stop-color="#e72920"/><stop offset=".303" stop-color="#d1241c"/><stop offset="1" stop-color="#a11913"/></radialGradient><radialGradient id="RhTrBlPNK9DGAspMrYtajaf" cx="14.478" cy="20.043" r="15.417" gradientTransform="matrix(0 -1 .988 0 -5.318 34.527)" gradientUnits="userSpaceOnUse"><stop offset="0" stop-color="#501316" stop-opacity="0"/><stop offset=".252" stop-color="#501316" stop-opacity=".042"/><stop offset=".463" stop-color="#501316" stop-opacity=".171"/><stop offset=".66" stop-color="#501316" stop-opacity=".389"/><stop offset=".847" stop-color="#501316" stop-opacity=".693"/><stop offset=".992" stop-color="#501316"/></radialGradient><radialGradient id="RhTrBlPNK9DGAspMrYtajap" cx="-180.083" cy="62.56" r=".923" gradientTransform="matrix(1.093 0 0 1.309 211.228 -72.157)" xlink:href="#RhTrBlPNK9DGAspMrYtajm"/><radialGradient id="RhTrBlPNK9DGAspMrYtajah" cx="14.441" cy="12.551" r="1.899" xlink:href="#RhTrBlPNK9DGAspMrYtajd"/><radialGradient id="RhTrBlPNK9DGAspMrYtajai" cx="14.496" cy="11.353" r="2.516" gradientTransform="matrix(1 0 0 .521 0 5.434)" xlink:href="#RhTrBlPNK9DGAspMrYtajj"/><radialGradient id="RhTrBlPNK9DGAspMrYtajk" cx="-1.928" cy="36.034" r=".6" gradientTransform="matrix(.994 .17 -.446 2.108 36.054 -68.129)" gradientUnits="userSpaceOnUse"><stop offset="0" stop-color="#fcd854"/><stop offset=".461" stop-color="#fac600"/><stop offset=".701" stop-color="#f2b600"/><stop offset=".999" stop-color="#e69c00"/></radialGradient><radialGradient id="RhTrBlPNK9DGAspMrYtajaj" cx="-3445.818" cy="36.034" r=".6" gradientTransform="matrix(-.994 .17 .446 2.108 -3429.506 517.781)" xlink:href="#RhTrBlPNK9DGAspMrYtajk"/><radialGradient id="RhTrBlPNK9DGAspMrYtajak" cx="235.819" cy="-3.762" r="4.517" gradientTransform="matrix(.873 0 0 1.071 -191.422 10.85)" xlink:href="#RhTrBlPNK9DGAspMrYtajd"/><radialGradient id="RhTrBlPNK9DGAspMrYtajal" cx="2.554" cy="-430.395" r="4.311" gradientTransform="matrix(1.009 0 0 -.817 11.851 -347.185)" gradientUnits="userSpaceOnUse"><stop offset="0" stop-color="#b58858"/><stop offset=".292" stop-color="#92693e"/><stop offset=".577" stop-color="#764f2a"/><stop offset=".999" stop-color="#4b2a0e"/></radialGradient><radialGradient id="RhTrBlPNK9DGAspMrYtajam" cx="14.46" cy="8.309" r=".823" gradientTransform="matrix(1 -.011 .006 .537 -.048 4.006)" gradientUnits="userSpaceOnUse"><stop offset=".479" stop-color="#fccc24"/><stop offset=".673" stop-color="#fccc24" stop-opacity=".993"/><stop offset=".744" stop-color="#fccc24" stop-opacity=".966"/><stop offset=".794" stop-color="#fccc23" stop-opacity=".919"/><stop offset=".834" stop-color="#fccb23" stop-opacity=".852"/><stop offset=".869" stop-color="#fbcb22" stop-opacity=".764"/><stop offset=".899" stop-color="#fbca21" stop-opacity=".656"/><stop offset=".927" stop-color="#fbca20" stop-opacity=".527"/><stop offset=".953" stop-color="#fac91f" stop-opacity=".378"/><stop offset=".976" stop-color="#fac81e" stop-opacity=".207"/><stop offset=".997" stop-color="#f9c71c" stop-opacity=".025"/><stop offset="1" stop-color="#f9c71c" stop-opacity="0"/></radialGradient><radialGradient id="RhTrBlPNK9DGAspMrYtajan" cx="14.46" cy="153.545" r=".436" gradientTransform="matrix(1 0 0 .558 0 -77.319)" gradientUnits="userSpaceOnUse"><stop offset=".004" stop-color="#fdf0b9"/><stop offset=".112" stop-color="#fdf0b9" stop-opacity=".881"/><stop offset=".556" stop-color="#fdf0b9" stop-opacity=".412"/><stop offset=".86" stop-color="#fdf0b9" stop-opacity=".116"/><stop offset="1" stop-color="#fdf0b9" stop-opacity="0"/></radialGradient><radialGradient id="RhTrBlPNK9DGAspMrYtajao" cx="14.468" cy="8.553" r=".657" gradientTransform="matrix(.002 1 -1.211 .003 24.792 -5.937)" xlink:href="#RhTrBlPNK9DGAspMrYtajl"/><radialGradient id="RhTrBlPNK9DGAspMrYtajau" cx="-3643.284" cy="7.227" r=".308" gradientTransform="matrix(-1 0 0 1 -3627 0)" xlink:href="#RhTrBlPNK9DGAspMrYtajg"/><linearGradient id="RhTrBlPNK9DGAspMrYtajag" x1="14.441" x2="14.441" y1="12.574" y2="14.286" xlink:href="#RhTrBlPNK9DGAspMrYtaji"/><linearGradient id="RhTrBlPNK9DGAspMrYtajL" x1="-149.609" x2="-148.394" y1="7.322" y2="7.322" gradientTransform="matrix(-1 0 0 1 -117.429 0)" xlink:href="#RhTrBlPNK9DGAspMrYtajh"/><linearGradient id="RhTrBlPNK9DGAspMrYtajh" x1="-139.256" x2="-138.04" y1="7.322" y2="7.322" gradientTransform="matrix(-1 0 0 1 -103.429 0)" gradientUnits="userSpaceOnUse"><stop offset="0" stop-color="#b38658"/><stop offset="1" stop-color="#603a1a"/></linearGradient><linearGradient id="RhTrBlPNK9DGAspMrYtajo" x1="12.029" x2="13.245" y1="7.227" y2="7.227" gradientUnits="userSpaceOnUse"><stop offset="0" stop-color="#b58858"/><stop offset="1" stop-color="#603a1a"/></linearGradient><linearGradient id="RhTrBlPNK9DGAspMrYtaji" x1="-136.851" x2="-136.851" y1="12.662" y2="14.375" gradientTransform="matrix(-1 0 0 1 -103.429 0)" gradientUnits="userSpaceOnUse"><stop offset="0" stop-color="#ddd"/><stop offset="1" stop-color="#fff"/></linearGradient><linearGradient id="RhTrBlPNK9DGAspMrYtajat" x1="1.676" x2="2.891" y1="7.227" y2="7.227" gradientTransform="translate(14)" xlink:href="#RhTrBlPNK9DGAspMrYtajo"/></defs><path fill="url(#RhTrBlPNK9DGAspMrYtaja)" d="M36.106,46.28a2.825,2.825,0,0,1,.635.326,3.914,3.914,0,0,0,2.074.478c.526-.026,1.491-.071,1.482-.778,0-.022,0-.046,0-.07l0-.022c-.108-1-.808-1.308-1.747-1.716a2.1,2.1,0,0,1-1.356-1.455H34.617A17.9,17.9,0,0,0,34.3,44.97v.012l-.006.056C34.224,46.028,35.763,46.191,36.106,46.28Z"/><path fill="url(#RhTrBlPNK9DGAspMrYtajb)" d="M36.106,46.28a2.825,2.825,0,0,1,.635.326,3.914,3.914,0,0,0,2.074.478c.526-.026,1.491-.071,1.482-.778,0-.022,0-.046,0-.07l0-.022c-.188.226-.491.4-1.22.394a4.1,4.1,0,0,1-2.1-.458c-.622-.43-1.031-1.084-1.482-1.084s-.281.578-.7.4a1.463,1.463,0,0,1-.5-.428C34.224,46.028,35.763,46.191,36.106,46.28Z"/><path fill="url(#RhTrBlPNK9DGAspMrYtajp)" d="M30.662,46.28a2.825,2.825,0,0,0-.635.326,3.914,3.914,0,0,1-2.074.478c-.526-.026-1.491-.071-1.482-.778,0-.022,0-.046,0-.07l0-.022c.107-1,.807-1.308,1.746-1.716a2.1,2.1,0,0,0,1.356-1.455h2.571a17.581,17.581,0,0,1,.322,1.927v.012c0,.018.005.037.006.056C32.544,46.028,31.005,46.191,30.662,46.28Z"/><path fill="url(#RhTrBlPNK9DGAspMrYtajq)" d="M30.662,46.28a2.825,2.825,0,0,0-.635.326,3.914,3.914,0,0,1-2.074.478c-.526-.026-1.491-.071-1.482-.778,0-.022,0-.046,0-.07l0-.022c.188.226.49.4,1.219.394a4.1,4.1,0,0,0,2.1-.458c.622-.43,1.031-1.084,1.482-1.084s.281.578.7.4a1.463,1.463,0,0,0,.5-.428C32.544,46.028,31.005,46.191,30.662,46.28Z"/><path fill="url(#RhTrBlPNK9DGAspMrYtajc)" d="M29.016,34.652c.036,1.02-.019,7.888-.037,8.216s-.055.8.31.893,2.314.473,3.243-.747c.309-.419.765-7.871.036-8.873S29.016,34.652,29.016,34.652Z"/><path fill="url(#RhTrBlPNK9DGAspMrYtajr)" d="M33.142,29.134a20.089,20.089,0,0,1-.556,4.74,2.109,2.109,0,0,1-.339.631c-.032.043-.068.086-.1.126-.984,1.1-2.959,1.229-3.128-.122-.15-1.208-.238-4.422-.288-6.286l0-.121c-.013-.5-.024-.883-.032-1.094v0l0-.079,1.055.337.111.035,3.3,1.054S33.153,28.657,33.142,29.134Z"/><path fill="url(#RhTrBlPNK9DGAspMrYtajs)" d="M37.79,34.652c-.037,1.02.018,7.888.036,8.216s.055.8-.309.893-2.314.473-3.243-.747c-.31-.419-.765-7.871-.037-8.873S37.79,34.652,37.79,34.652Z"/><path fill="url(#RhTrBlPNK9DGAspMrYtajt)" d="M33.664,29.134a20.087,20.087,0,0,0,.555,4.74,2.155,2.155,0,0,0,.339.631c.033.043.069.086.1.126.984,1.1,2.959,1.229,3.127-.122.15-1.208.239-4.422.289-6.286l0-.121c.013-.5.024-.883.033-1.094v0l0-.079-1.055.337-.11.035-3.3,1.054S33.653,28.657,33.664,29.134Z"/><path fill="url(#RhTrBlPNK9DGAspMrYtaju)" d="M28.774,24.4c.2-.888,4.58.007,4.626.016.047-.009,4.427-.9,4.627-.016a8.186,8.186,0,0,1,.091,2.53c0,1.157-2.113,2.094-4.719,2.094s-4.718-.937-4.718-2.094v-.012A8.171,8.171,0,0,1,28.774,24.4Z"/><path fill="#13214a" d="M36.947,27.27l.006.007a2.2,2.2,0,0,0,.622.624,2.164,2.164,0,0,0,.5.253l0-.115a2.12,2.12,0,0,1-1.019-.8l-.024-.035a2.13,2.13,0,0,1-.307-1.5.054.054,0,0,0-.044-.063.055.055,0,0,0-.063.045A2.243,2.243,0,0,0,36.947,27.27Z"/><path fill="#13214a" d="M28.719,28.043l0,.114a2.139,2.139,0,0,0,.507-.251,2.19,2.19,0,0,0,.628-.626l.007-.01a2.238,2.238,0,0,0,.323-1.584.055.055,0,1,0-.108.018,2.124,2.124,0,0,1-.306,1.5.367.367,0,0,1-.027.038,2.1,2.1,0,0,1-.6.586A2.135,2.135,0,0,1,28.719,28.043Z"/><path fill="#182657" d="M33.071,29.04a.054.054,0,0,0,.054-.054v-2.6a.054.054,0,0,0-.054-.055.055.055,0,0,0-.055.055v2.6A.055.055,0,0,0,33.071,29.04Z"/><path fill="#182657" d="M33.069,28.184h0a1.118,1.118,0,0,0,.835-.617,2.324,2.324,0,0,0,.253-1.291.055.055,0,0,0-.059-.05.055.055,0,0,0-.05.059,2.207,2.207,0,0,1-.24,1.229,1.007,1.007,0,0,1-.748.561.055.055,0,0,0,0,.11Z"/><path fill="#13214a" d="M34.818,43.5a18.338,18.338,0,0,1-.52-6.183c.029-.345.071-.7.11-1.035a15.546,15.546,0,0,0,.155-2.394c0-.013,0-.026,0-.039a15.809,15.809,0,0,0-.188-1.639,9.037,9.037,0,0,1-.125-2.808c0-.027.008-.053.014-.081a.054.054,0,0,1,.063-.043.054.054,0,0,1,.044.063l0,.011a8.736,8.736,0,0,0,.115,2.842,16.172,16.172,0,0,1,.189,1.65v.006a15.4,15.4,0,0,1-.156,2.444c-.039.339-.079.689-.11,1.033a18.245,18.245,0,0,0,.546,6.248Z"/><path fill="#13214a" d="M33.728,28.99h.006a2.4,2.4,0,0,0,1.2-.533.054.054,0,0,0,.008-.077.055.055,0,0,0-.077-.008,2.288,2.288,0,0,1-1.142.509.057.057,0,0,0-.048.062A.055.055,0,0,0,33.728,28.99Z"/><path fill="#182657" d="M31.862,43.572a18.267,18.267,0,0,0,.544-6.243c-.031-.344-.071-.694-.111-1.033a15.481,15.481,0,0,1-.155-2.441v-.009a15.9,15.9,0,0,1,.189-1.65,8.736,8.736,0,0,0,.115-2.842l0-.011a.053.053,0,0,1,.044-.063.054.054,0,0,1,.063.043c.005.028.01.054.014.081a9.037,9.037,0,0,1-.126,2.808,16.087,16.087,0,0,0-.188,1.639c0,.014,0,.03,0,.044a15.736,15.736,0,0,0,.156,2.389c.039.339.08.69.11,1.035A18.374,18.374,0,0,1,32,43.5Z"/><path fill="#182657" d="M33.084,28.99a.054.054,0,0,0,.054-.047.055.055,0,0,0-.047-.062,2.287,2.287,0,0,1-1.143-.509.055.055,0,0,0-.077.008.054.054,0,0,0,.009.077,2.4,2.4,0,0,0,1.2.533Z"/><path fill="#b56900" d="M25.511,26.977c-.21-.193-.489-.337-.709-.041-.286.386-.758,1.027-.849,1.169a7.513,7.513,0,0,0-.168,2.173c.085.551.613.257.686-.337s.255-1.495.671-1.7Z"/><path fill="#d18000" d="M25.228,27.373c-.21-.194-.489-.338-.709-.041-.286.386-.758,1.026-.849,1.168a7.507,7.507,0,0,0-.169,2.173c.086.551.613.258.687-.337s.255-1.495.67-1.7Z"/><path fill="url(#RhTrBlPNK9DGAspMrYtaje)" d="M24.96,27.655c-.209-.193-.488-.337-.708-.041-.286.386-.758,1.027-.849,1.169a7.507,7.507,0,0,0-.169,2.173c.086.551.613.257.686-.337s.256-1.5.671-1.7Z"/><path fill="url(#RhTrBlPNK9DGAspMrYtajd)" d="M26.224,21.881a9.317,9.317,0,0,1,.128-1.219c.028-.2.071-.395.106-.593l.129-.585c.05-.192.1-.386.15-.577s.106-.382.17-.569a8.633,8.633,0,0,1,.427-1.107,1.372,1.372,0,0,1,2.568.928l-.007.027a7.857,7.857,0,0,1-.388,1.121c-.072.184-.16.363-.24.544s-.177.356-.264.534-.189.352-.287.526-.2.348-.311.517a8.609,8.609,0,0,1-.716,1l-.009.012a.827.827,0,0,1-1.164.1A.835.835,0,0,1,26.224,21.881Z"/><path fill="url(#RhTrBlPNK9DGAspMrYtajv)" d="M24.164,27.32a9.43,9.43,0,0,1,.162-1.411c.049-.227.091-.457.146-.682s.113-.449.177-.671a8.932,8.932,0,0,1,.457-1.3,4.205,4.205,0,0,1,.778-1.183l.177-.183a.946.946,0,0,1,1.281-.032.845.845,0,0,1,.28.861,11.679,11.679,0,0,1-.449,1.3c-.17.428-.364.846-.557,1.266s-.395.834-.606,1.246-.423.825-.655,1.229a.638.638,0,0,1-.855.22.615.615,0,0,1-.339-.55Z"/><path fill="url(#RhTrBlPNK9DGAspMrYtajw)" d="M24.982,30.189c-.054-.338.042-.373.244-.726s.332-1.813-.119-1.982a.391.391,0,0,0-.359,0c-.21-.194-.489-.337-.709-.041-.286.386-.885,1.453-.977,1.6a6.435,6.435,0,0,0-.193,2.037c.086.551.613.258.686-.337s.256-1.5.671-1.7a.871.871,0,0,0,.212-.156c.021.134.041.225.041.225a1.333,1.333,0,0,0-.059,1.282C24.578,30.8,25.053,30.638,24.982,30.189Z"/><path fill="#b56900" d="M39.969,26.785c.275-.074.589-.072.646.293.075.474.2,1.26.211,1.428a7.508,7.508,0,0,1-.858,2c-.331.448-.663-.056-.452-.617s.467-1.443.2-1.821Z"/><path fill="#d18000" d="M40.036,27.267c.276-.074.59-.073.647.292.075.475.2,1.261.211,1.429a7.535,7.535,0,0,1-.858,2c-.332.448-.663-.057-.452-.617s.467-1.443.2-1.821Z"/><path fill="url(#RhTrBlPNK9DGAspMrYtajx)" d="M40.142,27.641c.276-.074.59-.072.647.292.074.475.2,1.261.211,1.429a7.483,7.483,0,0,1-.859,2c-.331.448-.662-.056-.451-.617s.467-1.443.2-1.821Z"/><path fill="url(#RhTrBlPNK9DGAspMrYtajy)" d="M40.64,21.881a9.317,9.317,0,0,0-.128-1.219c-.028-.2-.071-.395-.106-.593l-.129-.585c-.05-.192-.1-.386-.149-.577s-.107-.382-.171-.569a8.633,8.633,0,0,0-.427-1.107,1.372,1.372,0,0,0-2.568.928l.007.027a7.857,7.857,0,0,0,.388,1.121c.073.184.16.363.241.544s.176.356.264.534.189.352.286.526.2.348.311.517a8.73,8.73,0,0,0,.716,1l.01.012a.826.826,0,0,0,1.455-.558Z"/><path fill="url(#RhTrBlPNK9DGAspMrYtajz)" d="M41.064,27.642a9.491,9.491,0,0,0,.217-1.405c.013-.232.034-.465.04-.7s.01-.463.007-.693a9.054,9.054,0,0,0-.1-1.377,4.248,4.248,0,0,0-.437-1.347l-.123-.223a.946.946,0,0,0-1.227-.37.844.844,0,0,0-.5.756,11.954,11.954,0,0,0,.088,1.378c.051.457.128.912.2,1.367s.161.91.255,1.363.19.907.306,1.358a.64.64,0,0,0,.767.439.616.616,0,0,0,.472-.441Z"/><path fill="url(#RhTrBlPNK9DGAspMrYtajA)" d="M38.948,29.876c.2-.274.136-.35.121-.756s.546-1.76,1.024-1.7a.391.391,0,0,1,.317.17c.275-.074.589-.072.646.292.075.475.112,1.7.127,1.866a6.433,6.433,0,0,1-.774,1.895c-.331.448-.663-.056-.452-.617s.467-1.443.2-1.821a.841.841,0,0,1-.115-.237c-.081.11-.141.181-.141.181a1.33,1.33,0,0,1-.542,1.163C39.024,30.605,38.677,30.241,38.948,29.876Z"/><path fill="url(#RhTrBlPNK9DGAspMrYtajB)" d="M27,17.96a2.83,2.83,0,0,0,1.723,1.06c.208.044.411.075.6.1.517,2.035-.509,4-.882,6.289a.459.459,0,0,0,.225.449,5.872,5.872,0,0,0,2.161.639,20.3,20.3,0,0,0,2.593.138,10.393,10.393,0,0,0,4.754-.777.464.464,0,0,0,.225-.449c-.374-2.285-1.44-4.076-.882-6.289.192-.026.394-.057.6-.1a2.833,2.833,0,0,0,1.723-1.06.438.438,0,0,0,.071-.368c-.176-.694-.865-3.11-2.122-4.073a5.249,5.249,0,0,0-2.029-.842c-.13-.029-.259-.054-.387-.077a11.024,11.024,0,0,0-3.913,0c-.127.023-.257.048-.387.077a5.243,5.243,0,0,0-2.029.842c-1.257.963-1.945,3.379-2.122,4.073A.435.435,0,0,0,27,17.96Z"/><path fill="url(#RhTrBlPNK9DGAspMrYtajC)" d="M27,17.96a2.83,2.83,0,0,0,1.723,1.06c.208.044.411.075.6.1.517,2.035-.509,4-.882,6.289a.459.459,0,0,0,.225.449,5.872,5.872,0,0,0,2.161.639,20.3,20.3,0,0,0,2.593.138,10.393,10.393,0,0,0,4.754-.777.464.464,0,0,0,.225-.449c-.374-2.285-1.44-4.076-.882-6.289.192-.026.394-.057.6-.1a2.833,2.833,0,0,0,1.723-1.06.438.438,0,0,0,.071-.368c-.176-.694-.865-3.11-2.122-4.073a5.249,5.249,0,0,0-2.029-.842c-.13-.029-.259-.054-.387-.077a11.024,11.024,0,0,0-3.913,0c-.127.023-.257.048-.387.077a5.243,5.243,0,0,0-2.029.842c-1.257.963-1.945,3.379-2.122,4.073A.435.435,0,0,0,27,17.96Z"/><path fill="url(#RhTrBlPNK9DGAspMrYtaji)" d="M31.078,12.677a2.35,2.35,0,0,0,4.687,0c-.13-.029-.259-.054-.387-.077a11.024,11.024,0,0,0-3.913,0C31.338,12.623,31.208,12.648,31.078,12.677Z"/><path fill="url(#RhTrBlPNK9DGAspMrYtajD)" d="M31.9,12.533V10.786h3.042v1.747c.141.019.286.041.435.067a1.959,1.959,0,0,1-3.913,0C31.614,12.574,31.76,12.552,31.9,12.533Z"/><path fill="url(#RhTrBlPNK9DGAspMrYtajj)" d="M31.9,12.533V10.786h3.042v1.747c.141.019.286.041.435.067a1.959,1.959,0,0,1-3.913,0C31.614,12.574,31.76,12.552,31.9,12.533Z"/><path fill="#2e0e6f" d="M38.3,18.938a1.945,1.945,0,0,0,.587-.2,3.062,3.062,0,0,0,.444-.282c.043-.033.084-.067.122-.1a4.968,4.968,0,0,0-.541-1.207,5.482,5.482,0,0,0-.685-.877c-.071-.074-.141-.145-.211-.212-.346-.332-.668-.579-.876-.774-.028-.025-.053-.05-.076-.073.125.2.232.391.324.574a5.961,5.961,0,0,1,.481,1.2c.021.083.04.164.055.241a2.688,2.688,0,0,1,.035.956,1.828,1.828,0,0,1-.049.222,1.413,1.413,0,0,1-.367.635c.182-.013.372-.034.568-.067C38.175,18.966,38.237,18.949,38.3,18.938Z" opacity=".002"/><path fill="#2e0e6f" d="M38.273,18.905a.8.8,0,0,0,.527-.145,3.307,3.307,0,0,0,.453-.271c.045-.032.088-.064.127-.1a5.086,5.086,0,0,0-.52-1.217A5.432,5.432,0,0,0,38.2,16.3c-.068-.074-.136-.145-.2-.213-.331-.332-.641-.579-.845-.775-.026-.026-.051-.05-.074-.074a5.219,5.219,0,0,1,.283.511,6.11,6.11,0,0,1,.476,1.187c.022.082.041.161.056.237a2.782,2.782,0,0,1,.048.943,1.824,1.824,0,0,1-.044.218,1.606,1.606,0,0,1-.338.632,4.7,4.7,0,0,0,.533-.033A.708.708,0,0,1,38.273,18.905Z" opacity=".004"/><path fill="#2e0e6f" d="M38.247,18.872a.59.59,0,0,0,.467-.088,3.532,3.532,0,0,0,.464-.26c.046-.03.091-.061.132-.092a5.247,5.247,0,0,0-.5-1.228,5.421,5.421,0,0,0-.628-.875c-.065-.075-.13-.146-.194-.213-.316-.331-.615-.58-.813-.778-.026-.025-.05-.05-.072-.074a3.779,3.779,0,0,1,.24.447,6.237,6.237,0,0,1,.473,1.172c.022.08.041.158.057.233a2.844,2.844,0,0,1,.059.929,1.786,1.786,0,0,1-.038.214,1.835,1.835,0,0,1-.309.629,3.758,3.758,0,0,0,.5,0C38.14,18.885,38.2,18.88,38.247,18.872Z" opacity=".005"/><path fill="#2e0e6f" d="M38.221,18.839a.375.375,0,0,0,.408-.031,4.034,4.034,0,0,0,.474-.248c.048-.03.093-.06.137-.09a5.471,5.471,0,0,0-.479-1.237,5.528,5.528,0,0,0-.6-.875c-.063-.075-.124-.146-.186-.214-.3-.33-.588-.579-.782-.779-.025-.026-.049-.051-.07-.075a2.7,2.7,0,0,1,.2.384,6.391,6.391,0,0,1,.468,1.156c.022.079.041.155.058.229a2.988,2.988,0,0,1,.072.915,1.8,1.8,0,0,1-.033.211,2.183,2.183,0,0,1-.28.626,3.214,3.214,0,0,0,.463.035C38.122,18.846,38.173,18.843,38.221,18.839Z" opacity=".007"/><path fill="#2e0e6f" d="M38.2,18.806a.249.249,0,0,0,.348.026,4.194,4.194,0,0,0,.484-.237c.05-.028.1-.057.142-.086a5.587,5.587,0,0,0-.458-1.248,5.373,5.373,0,0,0-.572-.874c-.059-.075-.118-.147-.177-.214-.287-.33-.562-.58-.75-.781-.025-.026-.048-.052-.069-.076a1.723,1.723,0,0,1,.157.32,6.58,6.58,0,0,1,.465,1.141c.022.077.041.152.058.225a3.045,3.045,0,0,1,.084.9,1.575,1.575,0,0,1-.027.207,2.651,2.651,0,0,1-.251.623,2.4,2.4,0,0,0,.428.069C38.1,18.805,38.151,18.807,38.2,18.806Z" opacity=".009"/><path fill="#2e0e6f" d="M38.169,18.773c.13.156.169.149.289.083a4.8,4.8,0,0,0,.494-.225q.077-.041.147-.084a5.825,5.825,0,0,0-.438-1.258,5.431,5.431,0,0,0-.544-.874c-.056-.074-.112-.146-.168-.214-.273-.328-.535-.58-.719-.783-.024-.026-.046-.051-.067-.076a1.113,1.113,0,0,1,.116.256,6.782,6.782,0,0,1,.46,1.126c.022.076.042.15.059.221a3.145,3.145,0,0,1,.1.887,1.771,1.771,0,0,1-.022.2,3.335,3.335,0,0,1-.222.62,2.087,2.087,0,0,0,.393.1A1.209,1.209,0,0,0,38.169,18.773Z" opacity=".011"/><path fill="#2e0e6f" d="M38.143,18.74c.111.194.12.2.23.14a5.034,5.034,0,0,0,.5-.214c.053-.026.1-.053.152-.08a6,6,0,0,0-.417-1.269,5.5,5.5,0,0,0-.515-.873c-.054-.075-.107-.147-.161-.215-.257-.327-.508-.58-.686-.784l-.066-.077a.575.575,0,0,1,.074.193,6.868,6.868,0,0,1,.456,1.11c.023.074.043.147.061.217a3.291,3.291,0,0,1,.108.873,1.544,1.544,0,0,1-.016.2,4.12,4.12,0,0,1-.193.617,1.9,1.9,0,0,0,.358.137C38.07,18.725,38.108,18.734,38.143,18.74Z" opacity=".012"/><path fill="#2e0e6f" d="M38.118,18.707c.091.231.071.251.169.2a5.287,5.287,0,0,0,.514-.2c.055-.024.107-.05.157-.077a6.4,6.4,0,0,0-.4-1.279,5.593,5.593,0,0,0-.488-.872c-.05-.075-.1-.147-.152-.215-.243-.326-.481-.58-.655-.787L37.2,15.4a.249.249,0,0,1,.033.128,7.272,7.272,0,0,1,.452,1.095c.023.073.043.144.061.213a3.473,3.473,0,0,1,.121.859,1.513,1.513,0,0,1-.011.2,5.771,5.771,0,0,1-.164.615,1.868,1.868,0,0,0,.323.17A1.021,1.021,0,0,0,38.118,18.707Z" opacity=".014"/><path fill="#2e0e6f" d="M38.092,18.674c.072.268.023.3.11.254.181-.056.355-.121.523-.191.057-.024.111-.049.163-.074a6.707,6.707,0,0,0-.376-1.29,5.656,5.656,0,0,0-.459-.871q-.072-.113-.144-.216c-.229-.325-.455-.58-.624-.788l-.062-.077c.006.008,0,.03-.009.065a7.548,7.548,0,0,1,.448,1.078c.023.072.044.142.062.21a3.616,3.616,0,0,1,.133.845,1.515,1.515,0,0,1-.005.193c-.029.329-.143.519-.135.611a1.926,1.926,0,0,0,.287.2C38.036,18.645,38.065,18.661,38.092,18.674Z" opacity=".016"/><path fill="#2e0e6f" d="M38.066,18.642c.053.3-.026.352.05.31.183-.052.361-.113.534-.18.058-.022.114-.046.167-.071a7.033,7.033,0,0,0-.355-1.3,5.733,5.733,0,0,0-.431-.87c-.045-.075-.09-.148-.135-.217-.214-.323-.428-.58-.592-.789l-.06-.078c-.01-.016-.028-.015-.051,0a8.039,8.039,0,0,1,.444,1.063c.023.071.043.139.062.206a3.862,3.862,0,0,1,.146.832c0,.066,0,.129,0,.188-.019.316-.116.507-.107.608a2.254,2.254,0,0,0,.252.239Z" opacity=".018"/><path fill="#2e0e6f" d="M38.04,18.609c.034.341-.074.4-.009.367.184-.048.365-.105.544-.168.059-.022.117-.044.172-.068a7.489,7.489,0,0,0-.335-1.311,5.978,5.978,0,0,0-.4-.869c-.042-.076-.084-.148-.127-.217-.2-.323-.4-.581-.561-.792l-.058-.078a.118.118,0,0,0-.093-.062,8.085,8.085,0,0,1,.44,1.047c.023.069.044.136.063.2a4.064,4.064,0,0,1,.158.818c.005.065.008.126.007.185-.008.3-.088.493-.078.605a3.442,3.442,0,0,0,.217.272Z" opacity=".019"/><path fill="#2e0e6f" d="M38.014,18.576c.014.378-.123.454-.068.424.185-.044.37-.1.553-.157.062-.02.121-.042.177-.065a8.048,8.048,0,0,0-.313-1.321,6.4,6.4,0,0,0-.375-.869c-.039-.075-.078-.147-.118-.217a8.885,8.885,0,0,0-.529-.793l-.057-.079a.306.306,0,0,0-.134-.126,8.848,8.848,0,0,1,.436,1.032c.023.068.044.134.064.2a4.445,4.445,0,0,1,.17.8c.006.063.011.124.012.181,0,.288-.06.48-.049.6.069.121.129.223.182.307C37.983,18.525,38,18.552,38.014,18.576Z" opacity=".021"/><path fill="#2e0e6f" d="M37.988,18.543a.73.73,0,0,1-.128.481c.187-.04.375-.088.564-.146.063-.018.124-.039.182-.061a8.522,8.522,0,0,0-.293-1.332,6.48,6.48,0,0,0-.347-.868c-.036-.075-.072-.148-.11-.218a7.989,7.989,0,0,0-.5-.8l-.055-.079a.58.58,0,0,0-.176-.189,9.153,9.153,0,0,1,.432,1.016c.024.066.045.131.065.194a4.732,4.732,0,0,1,.182.79c.008.062.015.121.018.178.013.273-.032.466-.019.6.058.133.106.246.146.34Q37.973,18.5,37.988,18.543Z" opacity=".023"/><path fill="#2e0e6f" d="M37.963,18.51c.033.452-.221.556-.188.538.188-.036.38-.081.573-.134.065-.018.128-.037.187-.059a9.04,9.04,0,0,0-.272-1.342,6.96,6.96,0,0,0-.318-.867c-.034-.075-.067-.148-.1-.218a6.943,6.943,0,0,0-.465-.8l-.054-.08a.967.967,0,0,0-.217-.253,10.253,10.253,0,0,1,.428,1c.023.065.045.128.065.19a5.326,5.326,0,0,1,.2.776c.01.06.018.118.023.174.022.26,0,.454.01.6.047.145.084.269.111.374A.61.61,0,0,1,37.963,18.51Z" opacity=".025"/><path fill="#2e0e6f" d="M37.937,18.477c-.007.492-.269.607-.248.6q.285-.05.584-.124c.066-.016.131-.035.192-.055a9.731,9.731,0,0,0-.252-1.352,7.146,7.146,0,0,0-.29-.867q-.045-.114-.093-.219a6.188,6.188,0,0,0-.434-.8c-.017-.028-.035-.055-.052-.08a1.359,1.359,0,0,0-.259-.317,10.587,10.587,0,0,1,.424.985q.036.095.066.186a5.723,5.723,0,0,1,.207.762c.012.059.022.116.029.171.032.245.025.44.039.593a4.043,4.043,0,0,1,.076.408A.905.905,0,0,1,37.937,18.477Z" opacity=".026"/><path fill="#2e0e6f" d="M37.911,18.444c-.045.529-.318.659-.307.653.191-.029.39-.066.593-.112.069-.016.135-.033.2-.053a10.991,10.991,0,0,0-.231-1.362A7.877,7.877,0,0,0,37.9,16.7c-.028-.076-.056-.149-.085-.219a5.666,5.666,0,0,0-.4-.8l-.051-.08a1.873,1.873,0,0,0-.3-.381c.171.354.309.676.42.969q.034.093.066.183a6.925,6.925,0,0,1,.22.748c.013.058.024.113.034.167.041.232.053.427.068.59a3.138,3.138,0,0,1,.041.442A1.216,1.216,0,0,1,37.911,18.444Z" opacity=".028"/><path fill="#2e0e6f" d="M37.519,19.121c.192-.026.394-.057.6-.1.07-.014.138-.031.2-.049a11.812,11.812,0,0,0-.21-1.373,8.245,8.245,0,0,0-.31-1.085,5.106,5.106,0,0,0-.371-.8,2.554,2.554,0,0,0-.391-.525c.2.419.36.8.484,1.132a7.448,7.448,0,0,1,.271.9,3.3,3.3,0,0,1,.088,1.2C37.8,18.975,37.519,19.121,37.519,19.121Z" opacity=".03"/><g><path fill="#2e0e6f" d="M29.8,15.186a8.437,8.437,0,0,0-.555,1.037,5.315,5.315,0,0,0-.284.8c-.01.04-.02.08-.029.12a2.793,2.793,0,0,0-.051,1.085,1.8,1.8,0,0,0,.081.313,1.345,1.345,0,0,0,.35.548,3.262,3.262,0,0,1-.557-.068c-.067-.014-.133-.03-.2-.047a2.984,2.984,0,0,1-.869-.392,2.658,2.658,0,0,1-.3-.232,5.006,5.006,0,0,1,.541-1.207,5.594,5.594,0,0,1,.689-.89,8.753,8.753,0,0,1,.68-.636C29.507,15.447,29.682,15.305,29.8,15.186Z" opacity=".002"/><path fill="#2e0e6f" d="M29.8,15.186a8.226,8.226,0,0,0-.547,1.028,5.313,5.313,0,0,0-.28.8c-.01.04-.02.08-.028.118a2.858,2.858,0,0,0-.056,1.079,1.82,1.82,0,0,0,.078.31,1.477,1.477,0,0,0,.334.548,1.776,1.776,0,0,1-.51-.035c-.066-.013-.13-.029-.191-.045a2.942,2.942,0,0,1-.845-.373,2.431,2.431,0,0,1-.293-.221,5.186,5.186,0,0,1,.52-1.217,5.594,5.594,0,0,1,.665-.9,8.19,8.19,0,0,1,.661-.647C29.509,15.45,29.681,15.306,29.8,15.186Z" opacity=".004"/><path fill="#2e0e6f" d="M29.8,15.186a8.151,8.151,0,0,0-.539,1.019,5.243,5.243,0,0,0-.276.792c-.01.04-.019.078-.028.116a2.891,2.891,0,0,0-.059,1.072,1.81,1.81,0,0,0,.073.306,1.623,1.623,0,0,0,.319.549,1.053,1.053,0,0,1-.464,0c-.063-.013-.125-.027-.184-.043a2.943,2.943,0,0,1-.823-.354,2.606,2.606,0,0,1-.287-.209,5.353,5.353,0,0,1,.5-1.228,5.709,5.709,0,0,1,.641-.914,7.968,7.968,0,0,1,.641-.657C29.511,15.453,29.681,15.307,29.8,15.186Z" opacity=".005"/><path fill="#2e0e6f" d="M29.8,15.186a8.085,8.085,0,0,0-.531,1.011,5.407,5.407,0,0,0-.273.785c-.009.039-.018.076-.027.113a2.933,2.933,0,0,0-.062,1.066,1.8,1.8,0,0,0,.068.3,1.828,1.828,0,0,0,.3.55.68.68,0,0,1-.416.031c-.062-.012-.121-.026-.179-.041a3.052,3.052,0,0,1-.8-.334,2.689,2.689,0,0,1-.281-.2,5.586,5.586,0,0,1,.479-1.237,5.829,5.829,0,0,1,.618-.927,7.625,7.625,0,0,1,.622-.668C29.513,15.455,29.68,15.307,29.8,15.186Z" opacity=".007"/><path fill="#2e0e6f" d="M29.8,15.186a8.013,8.013,0,0,0-.523,1,5.378,5.378,0,0,0-.269.779q-.014.057-.027.111a3,3,0,0,0-.066,1.059,1.931,1.931,0,0,0,.064.3,2.043,2.043,0,0,0,.288.551.466.466,0,0,1-.37.063c-.059-.012-.117-.025-.173-.039a3.055,3.055,0,0,1-.776-.315,2.572,2.572,0,0,1-.275-.187,5.759,5.759,0,0,1,.458-1.248,5.861,5.861,0,0,1,.594-.939,7.3,7.3,0,0,1,.6-.678C29.515,15.458,29.68,15.308,29.8,15.186Z" opacity=".009"/><path fill="#2e0e6f" d="M29.8,15.186a8.084,8.084,0,0,0-.515.993,5.349,5.349,0,0,0-.265.773c-.01.037-.018.073-.026.109a3.04,3.04,0,0,0-.07,1.052,1.784,1.784,0,0,0,.06.3,2.265,2.265,0,0,0,.272.552.327.327,0,0,1-.323.1c-.057-.011-.113-.024-.167-.037a3.064,3.064,0,0,1-.754-.3,2.614,2.614,0,0,1-.269-.176,6.089,6.089,0,0,1,.438-1.258,5.86,5.86,0,0,1,.571-.951,6.864,6.864,0,0,1,.582-.688C29.517,15.461,29.679,15.308,29.8,15.186Z" opacity=".011"/><path fill="#2e0e6f" d="M29.8,15.186a7.877,7.877,0,0,0-.507.984,5.46,5.46,0,0,0-.262.767c-.009.036-.017.072-.025.106a3.144,3.144,0,0,0-.074,1.046,2.006,2.006,0,0,0,.056.291,2.511,2.511,0,0,0,.257.553.246.246,0,0,1-.277.128c-.055-.01-.109-.021-.161-.034a3.148,3.148,0,0,1-.731-.277,2.586,2.586,0,0,1-.262-.164,6.276,6.276,0,0,1,.417-1.269,5.912,5.912,0,0,1,.547-.963,6.737,6.737,0,0,1,.563-.7C29.519,15.463,29.678,15.309,29.8,15.186Z" opacity=".012"/><path fill="#2e0e6f" d="M29.8,15.186a7.809,7.809,0,0,0-.5.975,5.434,5.434,0,0,0-.258.761c-.009.035-.017.07-.025.1a3.19,3.19,0,0,0-.077,1.039,2.04,2.04,0,0,0,.051.288,2.711,2.711,0,0,0,.242.553c-.062.128-.12.185-.23.161-.053-.009-.105-.02-.155-.032a3.186,3.186,0,0,1-.708-.258,2.529,2.529,0,0,1-.257-.153,6.719,6.719,0,0,1,.4-1.279,6.131,6.131,0,0,1,.524-.975,6.38,6.38,0,0,1,.544-.709C29.521,15.466,29.678,15.31,29.8,15.186Z" opacity=".014"/><path fill="#2e0e6f" d="M29.8,15.186a7.616,7.616,0,0,0-.491.967,5.312,5.312,0,0,0-.254.754c-.009.034-.017.068-.025.1a3.232,3.232,0,0,0-.08,1.031,2.017,2.017,0,0,0,.047.285,2.989,2.989,0,0,0,.225.554c-.044.148-.084.215-.183.194-.051-.009-.1-.019-.149-.03a3.234,3.234,0,0,1-.685-.239,2.642,2.642,0,0,1-.251-.141,7.131,7.131,0,0,1,.376-1.29,6.294,6.294,0,0,1,.5-.987,6.137,6.137,0,0,1,.525-.72C29.523,15.469,29.677,15.31,29.8,15.186Z" opacity=".016"/><path fill="#2e0e6f" d="M29.8,15.186a7.756,7.756,0,0,0-.483.958,5.476,5.476,0,0,0-.251.748c-.008.034-.016.067-.023.1a3.329,3.329,0,0,0-.085,1.025A2,2,0,0,0,29,18.3a3.338,3.338,0,0,0,.21.556c-.028.166-.05.244-.136.226-.049-.008-.1-.018-.144-.028a3.382,3.382,0,0,1-.662-.22,2.626,2.626,0,0,1-.244-.13,7.409,7.409,0,0,1,.355-1.3,6.3,6.3,0,0,1,.476-1,5.963,5.963,0,0,1,.944-1.216Z" opacity=".018"/><path fill="#2e0e6f" d="M29.8,15.186a7.555,7.555,0,0,0-.475.949,5.408,5.408,0,0,0-.247.742c-.008.033-.016.065-.023.1a3.416,3.416,0,0,0-.088,1.018,2.2,2.2,0,0,0,.038.278,3.61,3.61,0,0,0,.2.556c-.012.185-.016.275-.09.259l-.137-.026a3.521,3.521,0,0,1-.639-.2,2.664,2.664,0,0,1-.239-.118,7.912,7.912,0,0,1,.335-1.311,6.591,6.591,0,0,1,.452-1.012,5.83,5.83,0,0,1,.486-.74A5.011,5.011,0,0,1,29.8,15.186Z" opacity=".019"/><path fill="#2e0e6f" d="M29.8,15.186a7.562,7.562,0,0,0-.467.94,5.386,5.386,0,0,0-.243.736c-.008.032-.016.063-.023.1a3.55,3.55,0,0,0-.092,1.011,2.356,2.356,0,0,0,.034.274,3.71,3.71,0,0,0,.18.557c0,.205.018.3-.043.292q-.067-.011-.132-.024a3.763,3.763,0,0,1-.616-.182,2.4,2.4,0,0,1-.232-.107,8.284,8.284,0,0,1,.313-1.321,6.912,6.912,0,0,1,.429-1.024,5.75,5.75,0,0,1,.467-.75A4.293,4.293,0,0,1,29.8,15.186Z" opacity=".021"/><path fill="#2e0e6f" d="M29.8,15.186a7.5,7.5,0,0,0-.459.931,5.672,5.672,0,0,0-.24.73c-.007.031-.015.062-.022.092a3.625,3.625,0,0,0-.095,1,2.141,2.141,0,0,0,.03.27,3.529,3.529,0,0,0,.164.558c.02.224.052.335,0,.325l-.126-.022a4.12,4.12,0,0,1-.593-.163c-.081-.029-.156-.062-.226-.095a8.906,8.906,0,0,1,.293-1.332,7.049,7.049,0,0,1,.405-1.036,5.491,5.491,0,0,1,.448-.761A3.812,3.812,0,0,1,29.8,15.186Z" opacity=".023"/><path fill="#2e0e6f" d="M29.8,15.186a7.315,7.315,0,0,0-.451.923,5.544,5.544,0,0,0-.236.723q-.012.045-.021.09a3.7,3.7,0,0,0-.1,1,2.378,2.378,0,0,0,.025.267,3.742,3.742,0,0,0,.148.558c.038.243.088.366.051.358l-.12-.02a4.44,4.44,0,0,1-.57-.144,2.265,2.265,0,0,1-.221-.084,9.464,9.464,0,0,1,.273-1.342,7.275,7.275,0,0,1,.381-1.048,5.537,5.537,0,0,1,.428-.771A3.45,3.45,0,0,1,29.8,15.186Z" opacity=".025"/><path fill="#2e0e6f" d="M29.8,15.186a7.327,7.327,0,0,0-.443.914,5.577,5.577,0,0,0-.232.717c-.008.029-.015.059-.021.087a3.875,3.875,0,0,0-.1.992,2.621,2.621,0,0,0,.021.263,3.527,3.527,0,0,0,.133.56,3.222,3.222,0,0,1,.1.39l-.114-.018a5.288,5.288,0,0,1-.547-.125c-.075-.022-.147-.046-.214-.072a10.065,10.065,0,0,1,.252-1.352,7.42,7.42,0,0,1,.357-1.061A5.242,5.242,0,0,1,29.4,15.7,3.143,3.143,0,0,1,29.8,15.186Z" opacity=".026"/><path fill="#2e0e6f" d="M29.8,15.186a7.273,7.273,0,0,0-.435.905,5.686,5.686,0,0,0-.229.711c-.007.028-.013.057-.02.085a4.049,4.049,0,0,0-.106.985c0,.091.008.178.017.259a3.163,3.163,0,0,0,.117.561,3.71,3.71,0,0,0,.144.423l-.108-.016c-.174-.027-.349-.063-.524-.106-.073-.018-.143-.038-.209-.061a11.182,11.182,0,0,1,.231-1.362,7.875,7.875,0,0,1,.334-1.073,5.13,5.13,0,0,1,.39-.792A2.8,2.8,0,0,1,29.8,15.186Z" opacity=".028"/><path fill="#2e0e6f" d="M29.325,19.121c-.192-.026-.394-.057-.6-.1-.07-.014-.138-.031-.2-.049a11.812,11.812,0,0,1,.21-1.373,8.245,8.245,0,0,1,.31-1.085,5.017,5.017,0,0,1,.371-.8,2.554,2.554,0,0,1,.391-.525,7.222,7.222,0,0,0-.427.9,5.589,5.589,0,0,0-.245.788,3.988,3.988,0,0,0-.1,1.234A2.321,2.321,0,0,0,29.325,19.121Z" opacity=".03"/></g><g><path fill="url(#RhTrBlPNK9DGAspMrYtajE)" d="M28.391,9.781a8.613,8.613,0,0,0,.674-3.169,5.116,5.116,0,0,0,0-1.187,11.549,11.549,0,0,1,8.653,0,5.116,5.116,0,0,0,0,1.187A8.613,8.613,0,0,0,38.4,9.781c.261.486-.07.684-.07.684a13.9,13.9,0,0,1-4.935.862,13.9,13.9,0,0,1-4.934-.862S28.13,10.267,28.391,9.781Z"/><path fill="#4b2a0e" d="M28.391,9.781a8.613,8.613,0,0,0,.674-3.169,5.116,5.116,0,0,0,0-1.187l.743.153c.021.282-.029,1.267-.036,1.416a5.964,5.964,0,0,1-.415,2.623c-.112.257-.066.344-.035.372A10.367,10.367,0,0,0,33.4,10.6a10.375,10.375,0,0,0,4.07-.609c.031-.028.077-.115-.035-.372a5.964,5.964,0,0,1-.415-2.623c-.007-.149-.057-1.134-.036-1.416l.743-.153a5.116,5.116,0,0,0,0,1.187A8.613,8.613,0,0,0,38.4,9.781c.261.486-.07.684-.07.684a13.9,13.9,0,0,1-4.935.862,13.9,13.9,0,0,1-4.934-.862S28.13,10.267,28.391,9.781Z" opacity=".19"/><path fill="#4b2a0e" d="M28.391,9.781a8.613,8.613,0,0,0,.674-3.169,5.116,5.116,0,0,0,0-1.187l.662.153c.021.282-.032,1.27-.04,1.419a6.306,6.306,0,0,1-.455,2.664c-.112.257-.065.344-.035.372a10.935,10.935,0,0,0,4.194.646,10.938,10.938,0,0,0,4.2-.646c.03-.028.076-.115-.036-.372A6.339,6.339,0,0,1,37.1,7c-.007-.149-.06-1.137-.039-1.419l.662-.153a5.116,5.116,0,0,0,0,1.187A8.613,8.613,0,0,0,38.4,9.781c.261.486-.07.684-.07.684a13.9,13.9,0,0,1-4.935.862,13.9,13.9,0,0,1-4.934-.862S28.13,10.267,28.391,9.781Z" opacity=".325"/><path fill="#4b2a0e" d="M28.391,9.781a8.613,8.613,0,0,0,.674-3.169,5.116,5.116,0,0,0,0-1.187l.581.153c.021.282-.035,1.273-.043,1.422a6.714,6.714,0,0,1-.5,2.7c-.112.257-.066.344-.035.372a11.488,11.488,0,0,0,4.318.684,11.5,11.5,0,0,0,4.319-.684c.031-.028.077-.115-.035-.372a6.7,6.7,0,0,1-.5-2.7c-.007-.149-.063-1.14-.042-1.422l.581-.153a5.116,5.116,0,0,0,0,1.187A8.613,8.613,0,0,0,38.4,9.781c.261.486-.07.684-.07.684a13.9,13.9,0,0,1-4.935.862,13.9,13.9,0,0,1-4.934-.862S28.13,10.267,28.391,9.781Z" opacity=".46"/><path fill="#4b2a0e" d="M28.391,9.781a8.613,8.613,0,0,0,.674-3.169,5.116,5.116,0,0,0,0-1.187l.5.153c.021.282-.038,1.276-.046,1.425a7.1,7.1,0,0,1-.536,2.745c-.112.257-.065.344-.035.372a12.086,12.086,0,0,0,4.443.721,12.088,12.088,0,0,0,4.444-.721c.03-.028.076-.115-.035-.372A7.106,7.106,0,0,1,37.267,7c-.007-.149-.066-1.143-.045-1.425l.5-.153a5.116,5.116,0,0,0,0,1.187A8.613,8.613,0,0,0,38.4,9.781c.261.486-.07.684-.07.684a13.9,13.9,0,0,1-4.935.862,13.9,13.9,0,0,1-4.934-.862S28.13,10.267,28.391,9.781Z" opacity=".595"/><path fill="#4b2a0e" d="M28.391,9.781a8.613,8.613,0,0,0,.674-3.169,5.116,5.116,0,0,0,0-1.187l.419.153c.021.282-.042,1.279-.049,1.428a7.536,7.536,0,0,1-.576,2.785c-.112.257-.066.344-.035.372a12.666,12.666,0,0,0,4.567.759,12.669,12.669,0,0,0,4.568-.759c.031-.028.077-.115-.035-.372a7.521,7.521,0,0,1-.577-2.785c-.007-.149-.069-1.146-.048-1.428l.419-.153a5.116,5.116,0,0,0,0,1.187A8.613,8.613,0,0,0,38.4,9.781c.261.486-.07.684-.07.684a13.9,13.9,0,0,1-4.935.862,13.9,13.9,0,0,1-4.934-.862S28.13,10.267,28.391,9.781Z" opacity=".73"/><path fill="#4b2a0e" d="M28.391,9.781a8.613,8.613,0,0,0,.674-3.169,5.116,5.116,0,0,0,0-1.187l.338.153c.021.282-.045,1.282-.052,1.431a7.962,7.962,0,0,1-.617,2.826c-.112.257-.066.344-.035.372A13.293,13.293,0,0,0,33.4,11a13.3,13.3,0,0,0,4.693-.8c.03-.028.077-.115-.035-.372a7.969,7.969,0,0,1-.618-2.826c-.007-.149-.072-1.149-.051-1.431l.338-.153a5.116,5.116,0,0,0,0,1.187A8.613,8.613,0,0,0,38.4,9.781c.261.486-.07.684-.07.684a13.9,13.9,0,0,1-4.935.862,13.9,13.9,0,0,1-4.934-.862S28.13,10.267,28.391,9.781Z" opacity=".865"/><path fill="#4b2a0e" d="M28.391,9.781a8.613,8.613,0,0,0,.674-3.169,5.116,5.116,0,0,0,0-1.187l.257.153c.021.282-.048,1.285-.055,1.434a8.445,8.445,0,0,1-.657,2.866c-.112.257-.066.344-.036.372a13.918,13.918,0,0,0,4.817.834,13.9,13.9,0,0,0,4.817-.834c.031-.028.077-.115-.035-.372a8.453,8.453,0,0,1-.658-2.866c-.007-.149-.075-1.152-.054-1.434l.257-.153a5.116,5.116,0,0,0,0,1.187A8.613,8.613,0,0,0,38.4,9.781c.261.486-.07.684-.07.684a13.9,13.9,0,0,1-4.935.862,13.9,13.9,0,0,1-4.934-.862S28.13,10.267,28.391,9.781Z"/><path fill="url(#RhTrBlPNK9DGAspMrYtajf)" d="M30.235,8.9c.146,0,.227-.057.206-.183-.042-.253-.208-2-.208-2-.417,0-.97,0-.97.73C29.263,8.249,29.629,8.9,30.235,8.9Z"/><path fill="url(#RhTrBlPNK9DGAspMrYtajF)" d="M36.556,8.9c-.146,0-.227-.057-.206-.183.042-.253.208-2,.208-2,.417,0,.97,0,.97.73C37.528,8.249,37.162,8.9,36.556,8.9Z"/><path fill="url(#RhTrBlPNK9DGAspMrYtajG)" d="M29.506,6.893a6.261,6.261,0,0,0,.885,2.837A4.133,4.133,0,0,0,33.4,11.813,4.146,4.146,0,0,0,36.419,9.73a6.426,6.426,0,0,0,.866-2.837c0-.2,0-1.621-.016-1.8A3.693,3.693,0,0,0,33.4,1.522,3.643,3.643,0,0,0,29.53,4.969C29.514,5.186,29.506,6.647,29.506,6.893Z"/><g><path style="isolation:isolate" d="M29.43,6.337a13.311,13.311,0,0,1,1.457-1.856.3.3,0,0,1,.279-.1,5.024,5.024,0,0,0,3.35-.687.3.3,0,0,1,.4.06c.639.8,2.457,2.745,2.456,2.745l-.06.021a5.4,5.4,0,0,1-2.56-2.1c-.1-.12-.134-.117-.263-.035a4.81,4.81,0,0,1-3.14.628.29.29,0,0,0-.279.1A6.326,6.326,0,0,1,29.4,6.663S29.419,6.361,29.43,6.337Z" opacity=".1"/><path style="isolation:isolate" d="M29.447,6.246A13.417,13.417,0,0,1,30.905,4.39a.3.3,0,0,1,.279-.1,5.03,5.03,0,0,0,3.35-.687.3.3,0,0,1,.4.06c.639.8,2.457,2.745,2.456,2.744L37.3,6.5a6.378,6.378,0,0,1-2.512-2.179c-.095-.12-.158-.134-.287-.052a4.876,4.876,0,0,1-3.209.644.261.261,0,0,0-.266.1A7.718,7.718,0,0,1,29.42,6.606S29.437,6.27,29.447,6.246Z" opacity=".1"/><path style="isolation:isolate" d="M29.465,6.155A13.311,13.311,0,0,1,30.922,4.3a.3.3,0,0,1,.279-.1,5.035,5.035,0,0,0,3.351-.687.3.3,0,0,1,.4.06c.64.8,2.458,2.745,2.457,2.744l-.105.167a7.8,7.8,0,0,1-2.464-2.253c-.095-.119-.183-.151-.312-.069a4.949,4.949,0,0,1-3.278.66.24.24,0,0,0-.253.095A9.947,9.947,0,0,1,29.44,6.55S29.455,6.179,29.465,6.155Z" opacity=".1"/><path style="isolation:isolate" d="M29.483,6.064A13.252,13.252,0,0,1,30.94,4.208a.3.3,0,0,1,.279-.1,5.036,5.036,0,0,0,3.35-.687.3.3,0,0,1,.4.06c.639.8,2.457,2.745,2.456,2.744l-.127.24a10.071,10.071,0,0,1-2.415-2.327c-.095-.12-.207-.168-.336-.086a5.035,5.035,0,0,1-3.347.676.216.216,0,0,0-.24.091,14.286,14.286,0,0,1-1.5,1.676S29.472,6.088,29.483,6.064Z" opacity=".1"/></g><path fill="url(#RhTrBlPNK9DGAspMrYtajH)" d="M37.368,6.5a24.015,24.015,0,0,1-2.453-2.609.292.292,0,0,0-.392-.061,4.891,4.891,0,0,1-3.325.7.3.3,0,0,0-.277.1c-.568.7-1.007,1.627-1.481,1.918-.257.4-.323-.031-.359.219-.137-1.139-.405-5.652,4.348-5.652a2.06,2.06,0,0,1,1.347.394,1.452,1.452,0,0,1,.813.1c2.618,1.248,2.113,4.629,2.143,5.138A1.018,1.018,0,0,0,37.368,6.5Z"/><g><path fill="#4b2a0e" d="M29.507,5.687a15.436,15.436,0,0,1,1.135-1.726.3.3,0,0,1,.278-.1,4.864,4.864,0,0,0,3.187-.505c.158-.134.447-.31.383-1.063-.033-.388.576-.393.739.023A2,2,0,0,1,35.4,3.4c-.034.11.17.313.185.332a14.975,14.975,0,0,0,1.789,2.053c.357.323.387,1.371.39,1.421a.894.894,0,0,0-.5-.874,13.855,13.855,0,0,1-2.348-2.346.328.328,0,0,0-.414-.057,4.99,4.99,0,0,1-3.316.683.4.4,0,0,0-.324.113c-.549.678-.732,1.066-1.154,1.518-.3.312-.639.609-.676.853A4.016,4.016,0,0,1,29.507,5.687Z" opacity=".167"/><path fill="#4b2a0e" d="M29.539,5.785c.292-.455.606-1.009,1.143-1.72a.29.29,0,0,1,.278-.1,4.939,4.939,0,0,0,3.219-.533c.159-.134.441-.323.374-1.115-.03-.356.486-.338.623.015a2.1,2.1,0,0,1,.128,1.1c-.034.11.136.281.151.3a14.052,14.052,0,0,0,1.891,2.154,2.346,2.346,0,0,1,.414,1.321.916.916,0,0,0-.506-.828,13.353,13.353,0,0,1-2.346-2.388.323.323,0,0,0-.411-.056,5.016,5.016,0,0,1-3.32.681.37.37,0,0,0-.315.11c-.527.683-.716,1.04-1.169,1.552-.29.317-.632.6-.67.853A3.737,3.737,0,0,1,29.539,5.785Z" opacity=".333"/><path fill="#4b2a0e" d="M29.57,5.883c.3-.466.631-.983,1.152-1.714a.283.283,0,0,1,.278-.1,5.019,5.019,0,0,0,3.252-.561c.158-.134.434-.337.364-1.167-.028-.325.4-.284.507.007a2.185,2.185,0,0,1,.09,1.118c-.034.11.1.248.116.267a13.35,13.35,0,0,0,1.995,2.255,2.052,2.052,0,0,1,.437,1.221.955.955,0,0,0-.508-.782A12.685,12.685,0,0,1,34.908,4a.318.318,0,0,0-.407-.057,5.027,5.027,0,0,1-3.325.679.344.344,0,0,0-.306.109c-.506.687-.7,1.013-1.184,1.586-.281.321-.625.6-.664.851A3.4,3.4,0,0,1,29.57,5.883Z" opacity=".5"/><path fill="#4b2a0e" d="M29.6,5.981c.312-.477.656-.958,1.159-1.709a.286.286,0,0,1,.279-.1,5.093,5.093,0,0,0,3.284-.588c.158-.134.428-.35.355-1.219-.025-.294.306-.229.391,0A2.294,2.294,0,0,1,35.123,3.5c-.034.11.067.215.081.234a12.855,12.855,0,0,0,2.1,2.357,1.774,1.774,0,0,1,.461,1.12,1.024,1.024,0,0,0-.511-.736A11.9,11.9,0,0,1,34.907,4a.311.311,0,0,0-.4-.058,5.038,5.038,0,0,1-3.33.678.319.319,0,0,0-.3.106c-.484.692-.684.987-1.2,1.621-.273.326-.618.6-.658.85A3.041,3.041,0,0,1,29.6,5.981Z" opacity=".667"/><path fill="#4b2a0e" d="M29.634,6.079c.321-.487.681-.932,1.167-1.7a.279.279,0,0,1,.279-.1A5.172,5.172,0,0,0,34.4,3.661c.159-.134.422-.364.347-1.272-.024-.262.215-.174.274-.009a2.394,2.394,0,0,1,.015,1.149.211.211,0,0,0,.047.2,12.471,12.471,0,0,0,2.2,2.458,1.508,1.508,0,0,1,.485,1.02,1.132,1.132,0,0,0-.513-.69,11.048,11.048,0,0,1-2.344-2.511.306.306,0,0,0-.4-.059,5.057,5.057,0,0,1-3.336.677.294.294,0,0,0-.287.1,20.46,20.46,0,0,1-1.214,1.656c-.264.33-.611.59-.652.848A2.661,2.661,0,0,1,29.634,6.079Z" opacity=".833"/><path fill="#4b2a0e" d="M29.665,6.177c.331-.5.707-.907,1.176-1.7a.272.272,0,0,1,.279-.1,5.257,5.257,0,0,0,3.349-.643c.158-.134.415-.378.337-1.324-.021-.231.125-.12.158-.016a2.5,2.5,0,0,1-.023,1.164c-.034.11,0,.15.013.17a12.127,12.127,0,0,0,2.3,2.558,1.269,1.269,0,0,1,.508.92,1.31,1.31,0,0,0-.515-.644,10.176,10.176,0,0,1-2.343-2.552.3.3,0,0,0-.395-.059,5.077,5.077,0,0,1-3.34.675.274.274,0,0,0-.278.1A18.452,18.452,0,0,1,29.665,6.42c-.255.334-.6.585-.645.847C29.054,6.78,29.452,6.5,29.665,6.177Z"/></g><ellipse cx="33.395" cy="8.41" fill="url(#RhTrBlPNK9DGAspMrYtajI)" rx=".851" ry=".486"/><ellipse cx="33.396" cy="8.41" fill="url(#RhTrBlPNK9DGAspMrYtajJ)" rx=".436" ry=".243"/><path fill="url(#RhTrBlPNK9DGAspMrYtajl)" d="M32.726,8.711a1.3,1.3,0,0,0,1.339,0c.07-.036.117-.019.117.048a.808.808,0,0,1-1.573,0C32.609,8.692,32.656,8.675,32.726,8.711Z"/><g><path fill="url(#RhTrBlPNK9DGAspMrYtajm)" d="M33.407,10.558c1.011,0,1.045-.591,1.045-.591s-.025,1.182-1.045,1.182-1.045-1.182-1.045-1.182S32.4,10.558,33.407,10.558Z"/><path fill="url(#RhTrBlPNK9DGAspMrYtajn)" d="M32.286,9.874s-.014.729,1.11.729,1.109-.729,1.109-.729-.246.222-1.109.222S32.286,9.874,32.286,9.874Z"/><path fill="url(#RhTrBlPNK9DGAspMrYtajg)" d="M34.428,9.874c.061,0,.1.051.066.092a1.414,1.414,0,0,1-1.1.394,1.376,1.376,0,0,1-1.1-.394c-.03-.041.005-.092.066-.092Z"/></g><g><path fill="#6b481d" d="M36.311,7.332c.007.106-.016.1-.06.15,0,0-.486.64-1.954.2-.106-.036-.182-.1-.171-.187A1.109,1.109,0,0,1,36.311,7.332Z"/><path fill="#fff" d="M36.289,7.318a.218.218,0,0,1,0,.2,1.265,1.265,0,0,1-2.079.217.189.189,0,0,1-.077-.218,1.181,1.181,0,0,1,1.085-.8A1.129,1.129,0,0,1,36.289,7.318Z"/><circle cx="35.219" cy="7.322" r=".608" fill="url(#RhTrBlPNK9DGAspMrYtajh)"/><circle cx="35.219" cy="7.322" r=".308" fill="url(#RhTrBlPNK9DGAspMrYtajK)"/><path fill="#6b481d" d="M30.48,7.329c-.008.107.016.1.059.151,0,0,.487.644,1.954.2.107-.036.183-.1.172-.188A1.108,1.108,0,0,0,30.48,7.329Z"/><path fill="#fff" d="M30.5,7.318a.218.218,0,0,0,0,.2,1.264,1.264,0,0,0,2.078.217.188.188,0,0,0,.077-.218,1.179,1.179,0,0,0-1.084-.8A1.129,1.129,0,0,0,30.5,7.318Z"/><circle cx="31.572" cy="7.322" r=".608" fill="url(#RhTrBlPNK9DGAspMrYtajL)"/><circle cx="31.572" cy="7.322" r=".308" fill="url(#RhTrBlPNK9DGAspMrYtajM)"/><circle cx="35.462" cy="7.078" r=".122" fill="#fff"/><circle cx="31.815" cy="7.078" r=".122" fill="#fff"/><path fill="#6b481d" d="M35.926,6.006A2.88,2.88,0,0,0,35.6,5.9c-.109-.031-.219-.056-.33-.078a6.287,6.287,0,0,0-.67-.1h0a.249.249,0,0,0-.046.495.255.255,0,0,0,.048,0,6.317,6.317,0,0,1,.631-.03c.105,0,.211,0,.316.013a2.874,2.874,0,0,1,.306.038h.009a.121.121,0,0,0,.068-.232Z"/><path fill="#6b481d" d="M30.973,6.208c.1-.012.207-.02.311-.024s.213-.006.319,0c.213,0,.426.016.638.036a.248.248,0,1,0,.048-.494.384.384,0,0,0-.048,0c-.224.021-.448.051-.669.09-.11.021-.221.043-.33.069s-.216.054-.331.092a.122.122,0,0,0-.077.154.121.121,0,0,0,.131.082Z"/></g></g><g><path fill="#2e0e6f" d="M32.931,19.2a.76.76,0,0,1,.42-.12.728.728,0,0,1,.168.02.832.832,0,0,1,.234.094,2.705,2.705,0,0,0,1.394.343,4.488,4.488,0,0,0,.987-.114.441.441,0,0,1,.089-.01.4.4,0,0,1,.39.275.36.36,0,0,1-.176.419,3.51,3.51,0,0,1-1.691.444,2.769,2.769,0,0,1-1.022-.193,2.3,2.3,0,0,1-.333-.168.124.124,0,0,0-.063-.017.12.12,0,0,0-.062.021,2.328,2.328,0,0,1-1.34.4,3.456,3.456,0,0,1-1.62-.45.358.358,0,0,1-.179-.417.4.4,0,0,1,.392-.276.43.43,0,0,1,.107.014,3.623,3.623,0,0,0,.918.121A2.583,2.583,0,0,0,32.931,19.2Z" opacity=".001"/><path fill="#2e0e6f" d="M32.942,19.2a.736.736,0,0,1,.415-.117.772.772,0,0,1,.166.023.882.882,0,0,1,.228.093,2.706,2.706,0,0,0,1.376.34,4.395,4.395,0,0,0,.978-.108.527.527,0,0,1,.089-.01.408.408,0,0,1,.393.253.335.335,0,0,1-.162.4,3.492,3.492,0,0,1-1.694.441,2.694,2.694,0,0,1-1.015-.2,3.651,3.651,0,0,1-.336-.162.117.117,0,0,0-.063-.014.122.122,0,0,0-.062.022,2.315,2.315,0,0,1-1.329.4,3.441,3.441,0,0,1-1.608-.448.333.333,0,0,1-.165-.4.408.408,0,0,1,.4-.253.44.44,0,0,1,.109.014,3.567,3.567,0,0,0,.912.113A2.573,2.573,0,0,0,32.942,19.2Z" opacity=".002"/><path fill="#2e0e6f" d="M32.953,19.2a.711.711,0,0,1,.41-.113.756.756,0,0,1,.164.025.907.907,0,0,1,.222.092,2.72,2.72,0,0,0,1.359.338,4.438,4.438,0,0,0,.969-.1.5.5,0,0,1,.087-.01.419.419,0,0,1,.4.23.312.312,0,0,1-.148.382,3.461,3.461,0,0,1-1.7.438,2.648,2.648,0,0,1-1.009-.205c-.121-.054-.238-.1-.338-.155a.111.111,0,0,0-.063-.012.136.136,0,0,0-.062.023,2.288,2.288,0,0,1-1.318.4,3.392,3.392,0,0,1-1.6-.446.306.306,0,0,1-.15-.379.416.416,0,0,1,.4-.229.581.581,0,0,1,.11.014,3.6,3.6,0,0,0,.906.106A2.584,2.584,0,0,0,32.953,19.2Z" opacity=".004"/><path fill="#2e0e6f" d="M32.964,19.192a.687.687,0,0,1,.406-.109.67.67,0,0,1,.16.027.934.934,0,0,1,.218.091,2.726,2.726,0,0,0,1.34.335,4.4,4.4,0,0,0,.96-.1.516.516,0,0,1,.087-.01.427.427,0,0,1,.4.208A.285.285,0,0,1,36.4,20a3.423,3.423,0,0,1-1.7.436,2.594,2.594,0,0,1-1-.212c-.121-.055-.239-.1-.341-.148a.123.123,0,0,0-.063-.009.143.143,0,0,0-.062.024,2.267,2.267,0,0,1-1.307.393,3.386,3.386,0,0,1-1.584-.444.282.282,0,0,1-.136-.36.429.429,0,0,1,.405-.206.6.6,0,0,1,.112.014,3.584,3.584,0,0,0,.9.1A2.578,2.578,0,0,0,32.964,19.192Z" opacity=".005"/><path fill="#2e0e6f" d="M32.975,19.189a.657.657,0,0,1,.4-.105.7.7,0,0,1,.158.028,1.059,1.059,0,0,1,.212.091,2.719,2.719,0,0,0,1.322.332,4.374,4.374,0,0,0,.951-.091.63.63,0,0,1,.086-.01.445.445,0,0,1,.4.186.261.261,0,0,1-.12.343,3.375,3.375,0,0,1-1.7.432,2.5,2.5,0,0,1-.995-.217c-.12-.057-.241-.1-.344-.142a.13.13,0,0,0-.063-.006.147.147,0,0,0-.062.025,2.24,2.24,0,0,1-1.3.389A3.357,3.357,0,0,1,30.354,20a.26.26,0,0,1-.121-.342.448.448,0,0,1,.408-.182.539.539,0,0,1,.114.015,3.566,3.566,0,0,0,.892.089A2.581,2.581,0,0,0,32.975,19.189Z" opacity=".006"/><path fill="#2e0e6f" d="M32.986,19.186a.641.641,0,0,1,.4-.1.7.7,0,0,1,.156.031,1.092,1.092,0,0,1,.206.09,2.725,2.725,0,0,0,1.3.329,4.282,4.282,0,0,0,.942-.085.6.6,0,0,1,.085-.01.472.472,0,0,1,.406.163.241.241,0,0,1-.106.325,3.337,3.337,0,0,1-1.7.429,2.475,2.475,0,0,1-.989-.223A2.4,2.4,0,0,0,33.336,20a.116.116,0,0,0-.063,0,.171.171,0,0,0-.062.025,2.212,2.212,0,0,1-1.285.386,3.326,3.326,0,0,1-1.56-.438.237.237,0,0,1-.107-.323.476.476,0,0,1,.413-.16.884.884,0,0,1,.115.016,3.6,3.6,0,0,0,.886.082A2.6,2.6,0,0,0,32.986,19.186Z" opacity=".007"/><path fill="#2e0e6f" d="M33,19.182a.618.618,0,0,1,.391-.1.652.652,0,0,1,.153.033,1.143,1.143,0,0,1,.2.089,2.746,2.746,0,0,0,1.287.327,4.38,4.38,0,0,0,.933-.08.8.8,0,0,1,.084-.01.5.5,0,0,1,.409.141.218.218,0,0,1-.091.306,3.316,3.316,0,0,1-1.708.426,2.4,2.4,0,0,1-.982-.23,1.779,1.779,0,0,0-.349-.128.135.135,0,0,0-.063,0,.176.176,0,0,0-.062.026,2.192,2.192,0,0,1-1.274.383,3.305,3.305,0,0,1-1.548-.437.215.215,0,0,1-.092-.3.513.513,0,0,1,.417-.136.9.9,0,0,1,.116.016,3.592,3.592,0,0,0,.88.074A2.585,2.585,0,0,0,33,19.182Z" opacity=".008"/><path fill="#2e0e6f" d="M33.008,19.179a.6.6,0,0,1,.387-.093.605.605,0,0,1,.15.035,1.4,1.4,0,0,1,.2.088,2.746,2.746,0,0,0,1.268.324,4.287,4.287,0,0,0,.925-.074.764.764,0,0,1,.082-.01.549.549,0,0,1,.413.118.2.2,0,0,1-.077.288,3.3,3.3,0,0,1-1.711.423,2.37,2.37,0,0,1-.976-.236,1.326,1.326,0,0,0-.351-.122.146.146,0,0,0-.063,0,.2.2,0,0,0-.062.027,2.165,2.165,0,0,1-1.263.379,3.274,3.274,0,0,1-1.536-.434.194.194,0,0,1-.078-.285.56.56,0,0,1,.422-.113.914.914,0,0,1,.117.016,3.579,3.579,0,0,0,.874.067A2.6,2.6,0,0,0,33.008,19.179Z" opacity=".009"/><path fill="#2e0e6f" d="M33.019,19.176a.576.576,0,0,1,.382-.089.593.593,0,0,1,.148.036,1.6,1.6,0,0,1,.19.088,2.753,2.753,0,0,0,1.251.321,4.314,4.314,0,0,0,.915-.068.735.735,0,0,1,.082-.01.6.6,0,0,1,.416.1.179.179,0,0,1-.063.269,3.258,3.258,0,0,1-1.714.42A2.314,2.314,0,0,1,33.657,20a1.081,1.081,0,0,0-.354-.114.163.163,0,0,0-.063,0,.187.187,0,0,0-.062.028,2.151,2.151,0,0,1-1.251.376,3.26,3.26,0,0,1-1.525-.432.182.182,0,0,1-.063-.267.768.768,0,0,1,.425-.089,1.156,1.156,0,0,1,.12.016,3.546,3.546,0,0,0,.866.059A2.609,2.609,0,0,0,33.019,19.176Z" opacity=".011"/><path fill="#2e0e6f" d="M33.03,19.173a.562.562,0,0,1,.377-.086.618.618,0,0,1,.146.039,1.677,1.677,0,0,1,.184.087,2.776,2.776,0,0,0,1.233.319,4.292,4.292,0,0,0,.907-.063c.026,0,.053-.008.08-.01a.871.871,0,0,1,.42.074.164.164,0,0,1-.05.249,3.225,3.225,0,0,1-1.716.418,2.255,2.255,0,0,1-.962-.249.909.909,0,0,0-.357-.108.161.161,0,0,0-.063.007.214.214,0,0,0-.062.029,2.126,2.126,0,0,1-1.24.372,3.229,3.229,0,0,1-1.513-.429.162.162,0,0,1-.049-.248.942.942,0,0,1,.43-.066c.041,0,.081.009.121.016a3.582,3.582,0,0,0,.86.052A2.62,2.62,0,0,0,33.03,19.173Z" opacity=".012"/><path fill="#2e0e6f" d="M33.041,19.17a.543.543,0,0,1,.373-.082.6.6,0,0,1,.142.041,1.805,1.805,0,0,1,.179.086,2.8,2.8,0,0,0,1.215.316,4.252,4.252,0,0,0,.9-.057c.026,0,.053-.008.08-.01a1.093,1.093,0,0,1,.422.051.145.145,0,0,1-.035.231,3.194,3.194,0,0,1-1.719.414,2.2,2.2,0,0,1-.956-.254.78.78,0,0,0-.359-.1.185.185,0,0,0-.063.01.207.207,0,0,0-.062.03,2.1,2.1,0,0,1-1.229.369,3.205,3.205,0,0,1-1.5-.428.142.142,0,0,1-.034-.229,1.185,1.185,0,0,1,.434-.042c.041,0,.082.01.122.016a3.465,3.465,0,0,0,.854.044A2.633,2.633,0,0,0,33.041,19.17Z" opacity=".013"/><path fill="#2e0e6f" d="M33.052,19.167a.523.523,0,0,1,.368-.078.581.581,0,0,1,.14.043c.054.024.113.052.173.085a2.812,2.812,0,0,0,1.2.313,4.218,4.218,0,0,0,.889-.051l.078-.01a.968.968,0,0,1,.426.029c.069.028.07.162-.021.212a3.158,3.158,0,0,1-1.722.411,2.162,2.162,0,0,1-.949-.261.685.685,0,0,0-.361-.094.2.2,0,0,0-.065.012.293.293,0,0,0-.061.031,2.076,2.076,0,0,1-1.218.365,3.189,3.189,0,0,1-1.489-.425.125.125,0,0,1-.02-.21,1.633,1.633,0,0,1,.438-.019c.042,0,.084.01.124.016a3.5,3.5,0,0,0,.848.037A2.643,2.643,0,0,0,33.052,19.167Z" opacity=".014"/><path fill="#2e0e6f" d="M33.063,19.163a.5.5,0,0,1,.363-.073.543.543,0,0,1,.138.045q.078.036.168.084a2.822,2.822,0,0,0,1.179.31,4.178,4.178,0,0,0,.88-.045l.078-.01a1.275,1.275,0,0,1,.429.007c.068.017.078.146-.007.193a3.146,3.146,0,0,1-1.725.408,2.127,2.127,0,0,1-.943-.267.605.605,0,0,0-.363-.088.229.229,0,0,0-.065.015.327.327,0,0,0-.061.032,2.059,2.059,0,0,1-1.207.361,3.158,3.158,0,0,1-1.477-.422c-.087-.047-.074-.176,0-.192a1.431,1.431,0,0,1,.442,0c.042,0,.084.01.125.017a3.515,3.515,0,0,0,.841.028A2.635,2.635,0,0,0,33.063,19.163Z" opacity=".015"/><path fill="#2e0e6f" d="M33.074,19.16a.49.49,0,0,1,.358-.07.541.541,0,0,1,.135.047c.05.026.1.053.163.084a2.858,2.858,0,0,0,1.161.308,4.217,4.217,0,0,0,.872-.04l.076-.01a1.933,1.933,0,0,1,.433-.016c.067.009.087.131.007.175a3.127,3.127,0,0,1-1.728.4,2.083,2.083,0,0,1-.936-.273.548.548,0,0,0-.366-.082.271.271,0,0,0-.065.018.3.3,0,0,0-.061.033,2.036,2.036,0,0,1-1.2.358,3.132,3.132,0,0,1-1.465-.42c-.082-.045-.058-.184.009-.173.138.021.294.008.447.028l.127.017a3.485,3.485,0,0,0,.834.021A2.669,2.669,0,0,0,33.074,19.16Z" opacity=".016"/><path fill="#2e0e6f" d="M33.085,19.157a.473.473,0,0,1,.354-.066.5.5,0,0,1,.132.049c.047.026.1.053.157.083a2.889,2.889,0,0,0,1.144.3,4.164,4.164,0,0,0,.862-.034l.075-.01a1.556,1.556,0,0,1,.436-.038.084.084,0,0,1,.022.156,3.09,3.09,0,0,1-1.731.4,2.026,2.026,0,0,1-.929-.28.505.505,0,0,0-.369-.074.3.3,0,0,0-.065.02.373.373,0,0,0-.061.034,2.016,2.016,0,0,1-1.185.354,3.1,3.1,0,0,1-1.453-.418c-.076-.041-.043-.167.024-.154.144.03.3.031.45.051l.129.018a3.409,3.409,0,0,0,.828.013A2.673,2.673,0,0,0,33.085,19.157Z" opacity=".018"/><path fill="#2e0e6f" d="M33.1,19.154a.451.451,0,0,1,.349-.062.463.463,0,0,1,.13.051c.045.026.095.053.151.082a2.919,2.919,0,0,0,1.126.3,4.131,4.131,0,0,0,.854-.028l.074-.01c.143-.019.291-.043.439-.061a.074.074,0,0,1,.035.138,3.066,3.066,0,0,1-1.733.4,1.99,1.99,0,0,1-.923-.286.466.466,0,0,0-.371-.068.387.387,0,0,0-.065.023.342.342,0,0,0-.061.035,2.006,2.006,0,0,1-1.174.351,3.093,3.093,0,0,1-1.441-.416.072.072,0,0,1,.038-.135c.154.024.307.053.455.074l.13.018a3.386,3.386,0,0,0,.822.006A2.709,2.709,0,0,0,33.1,19.154Z" opacity=".019"/><path fill="#2e0e6f" d="M33.578,19.146a3.434,3.434,0,0,0,2.615.265.065.065,0,0,1,.049.118,2.648,2.648,0,0,1-2.652.105.433.433,0,0,0-.5,0,2.355,2.355,0,0,1-2.592-.066.064.064,0,0,1,.053-.116,3.073,3.073,0,0,0,2.556-.3A.438.438,0,0,1,33.578,19.146Z" opacity=".02"/></g><g><path fill="url(#RhTrBlPNK9DGAspMrYtajN)" d="M11.749,46.192a2.8,2.8,0,0,0-.635.325,3.83,3.83,0,0,1-.667.289A3.9,3.9,0,0,1,9.041,47c-.526-.026-1.491-.071-1.483-.778a.576.576,0,0,1,0-.07l0-.022c.107-1,.808-1.307,1.747-1.716a2.1,2.1,0,0,0,1.355-1.455h2.571a17.581,17.581,0,0,1,.322,1.927v.012a.532.532,0,0,1,.006.056C13.631,45.939,12.092,46.1,11.749,46.192Z"/><path fill="url(#RhTrBlPNK9DGAspMrYtajO)" d="M11.749,46.192a2.8,2.8,0,0,0-.635.325,3.83,3.83,0,0,1-.667.289A3.9,3.9,0,0,1,9.041,47c-.526-.026-1.491-.071-1.483-.778a.576.576,0,0,1,0-.07l0-.022c.188.226.491.4,1.22.4a4.12,4.12,0,0,0,2.1-.458c.622-.431,1.031-1.085,1.483-1.085s.28.579.7.4a1.47,1.47,0,0,0,.5-.428C13.631,45.939,12.092,46.1,11.749,46.192Z"/><g><path fill="url(#RhTrBlPNK9DGAspMrYtajP)" d="M17.194,46.192a2.822,2.822,0,0,1,.635.325,3.854,3.854,0,0,0,.666.289A3.907,3.907,0,0,0,19.9,47c.526-.026,1.491-.071,1.482-.778,0-.022,0-.046,0-.07l0-.022c-.107-1-.808-1.307-1.747-1.716a2.1,2.1,0,0,1-1.355-1.455H15.705a17.691,17.691,0,0,0-.323,1.927v.012c0,.019,0,.037-.005.056C15.311,45.939,16.85,46.1,17.194,46.192Z"/><path fill="url(#RhTrBlPNK9DGAspMrYtajQ)" d="M17.194,46.192a2.822,2.822,0,0,1,.635.325,3.854,3.854,0,0,0,.666.289A3.907,3.907,0,0,0,19.9,47c.526-.026,1.491-.071,1.482-.778,0-.022,0-.046,0-.07l0-.022c-.188.226-.491.4-1.22.4a4.124,4.124,0,0,1-2.1-.458c-.622-.431-1.03-1.085-1.482-1.085s-.281.579-.7.4a1.451,1.451,0,0,1-.5-.428C15.311,45.939,16.85,46.1,17.194,46.192Z"/></g></g><g><path fill="url(#RhTrBlPNK9DGAspMrYtajR)" d="M18.848,34.563c-.037,1.02.018,7.888.036,8.216s.055.8-.31.893-2.313.474-3.242-.747c-.31-.419-.766-7.87-.037-8.872S18.848,34.563,18.848,34.563Z"/><path fill="url(#RhTrBlPNK9DGAspMrYtajS)" d="M14.722,29.045a20.035,20.035,0,0,0,.555,4.74,2.127,2.127,0,0,0,.339.632c.032.042.069.085.105.125.983,1.1,2.959,1.229,3.127-.122.15-1.208.238-4.422.289-6.286l0-.121c.013-.5.024-.883.033-1.093v-.005l0-.078-1.055.337-.11.034-3.3,1.054S14.711,28.568,14.722,29.045Z"/><path fill="url(#RhTrBlPNK9DGAspMrYtajT)" d="M10.073,34.563c.037,1.02-.018,7.888-.036,8.216s-.055.8.31.893,2.313.474,3.242-.747c.31-.419.766-7.87.037-8.872S10.073,34.563,10.073,34.563Z"/><path fill="url(#RhTrBlPNK9DGAspMrYtajU)" d="M14.2,29.045a20.087,20.087,0,0,1-.555,4.74,2.173,2.173,0,0,1-.339.632c-.033.042-.069.085-.105.125-.984,1.1-2.959,1.229-3.127-.122-.15-1.208-.238-4.422-.289-6.286l0-.121c-.013-.5-.024-.883-.033-1.093v-.005l0-.078,1.055.337.11.034,3.3,1.054S14.21,28.568,14.2,29.045Z"/><path fill="url(#RhTrBlPNK9DGAspMrYtajV)" d="M19.089,24.306c-.2-.888-4.58.007-4.626.016-.047-.009-4.427-.9-4.627-.016a8.186,8.186,0,0,0-.091,2.53c0,1.157,2.113,2.094,4.719,2.094s4.718-.937,4.718-2.094v-.012A8.207,8.207,0,0,0,19.089,24.306Z"/><path fill="#13214a" d="M10.916,27.181l-.006.007a2.191,2.191,0,0,1-.622.625,2.141,2.141,0,0,1-.5.252l0-.115a2.017,2.017,0,0,0,.423-.212,2.144,2.144,0,0,0,.6-.582c.009-.011.016-.023.024-.035a2.126,2.126,0,0,0,.307-1.5.054.054,0,1,1,.107-.019A2.243,2.243,0,0,1,10.916,27.181Z"/><path fill="#13214a" d="M19.144,27.955l0,.113a2.139,2.139,0,0,1-.507-.251,2.183,2.183,0,0,1-.627-.625L18,27.181a2.238,2.238,0,0,1-.323-1.584.056.056,0,0,1,.064-.045.058.058,0,0,1,.045.064,2.115,2.115,0,0,0,.306,1.5.309.309,0,0,0,.026.037,2.084,2.084,0,0,0,.6.586A2.223,2.223,0,0,0,19.144,27.955Z"/><path fill="#182657" d="M14.792,28.952a.055.055,0,0,1-.054-.055V26.3a.055.055,0,1,1,.109,0v2.6A.055.055,0,0,1,14.792,28.952Z"/><path fill="#182657" d="M14.794,28.1h-.005a1.121,1.121,0,0,1-.835-.617,2.329,2.329,0,0,1-.253-1.292.055.055,0,0,1,.109.01,2.2,2.2,0,0,0,.24,1.228,1.009,1.009,0,0,0,.748.562.054.054,0,0,1,.05.059A.054.054,0,0,1,14.794,28.1Z"/><path fill="#13214a" d="M13.045,43.413a18.335,18.335,0,0,0,.52-6.182c-.029-.346-.071-.7-.11-1.035A15.546,15.546,0,0,1,13.3,33.8c0-.013,0-.027,0-.04a15.79,15.79,0,0,1,.188-1.638,9.04,9.04,0,0,0,.126-2.808c-.005-.028-.009-.054-.015-.081a.054.054,0,0,0-.107.019l0,.011a8.735,8.735,0,0,1-.114,2.842,16.174,16.174,0,0,0-.19,1.65v.006a15.54,15.54,0,0,0,.156,2.445c.039.338.079.688.11,1.032a18.225,18.225,0,0,1-.545,6.249Z"/><path fill="#13214a" d="M14.136,28.9h-.007a2.392,2.392,0,0,1-1.2-.533A.055.055,0,0,1,13,28.283a2.281,2.281,0,0,0,1.142.51.055.055,0,0,1,.048.061A.056.056,0,0,1,14.136,28.9Z"/><path fill="#13214a" d="M16,43.483a18.262,18.262,0,0,1-.544-6.243c.031-.344.071-.694.111-1.032a15.489,15.489,0,0,0,.155-2.441v-.01a15.9,15.9,0,0,0-.189-1.65,8.763,8.763,0,0,1-.115-2.842l0-.011a.053.053,0,0,0-.043-.063.055.055,0,0,0-.064.044c-.005.027-.01.053-.014.081a9.04,9.04,0,0,0,.126,2.808,15.79,15.79,0,0,1,.188,1.638c0,.015,0,.03,0,.044a15.878,15.878,0,0,1-.155,2.39c-.04.338-.081.689-.111,1.035a18.376,18.376,0,0,0,.519,6.176Z"/><path fill="#13214a" d="M14.779,28.9a.055.055,0,0,1-.054-.048.054.054,0,0,1,.047-.061,2.28,2.28,0,0,0,1.143-.51.055.055,0,0,1,.069.085,2.392,2.392,0,0,1-1.2.533Z"/></g><path fill="#b56900" d="M22.065,26.451c.2-.206.467-.367.7-.084.308.368.818.979.918,1.115a7.548,7.548,0,0,1,.3,2.159c-.053.555-.6.294-.706-.295s-.345-1.477-.772-1.661Z"/><path fill="#d18000" d="M22.371,26.828c.2-.206.468-.366.705-.083.309.368.819.978.918,1.115a7.512,7.512,0,0,1,.3,2.159c-.052.555-.6.294-.7-.295s-.345-1.477-.772-1.661Z"/><path fill="url(#RhTrBlPNK9DGAspMrYtajW)" d="M22.655,27.094c.2-.206.468-.366.7-.083.309.368.818.979.918,1.115a7.512,7.512,0,0,1,.3,2.159c-.052.555-.6.294-.705-.3s-.345-1.477-.773-1.661Z"/><path fill="url(#RhTrBlPNK9DGAspMrYtajX)" d="M18.067,17.09a1.37,1.37,0,0,1,2.445.053,8.563,8.563,0,0,1,.427,1.106c.064.187.114.38.171.569s.1.385.149.578l.129.585c.035.2.078.392.106.593a9.32,9.32,0,0,1,.128,1.218.837.837,0,0,1-.292.655.826.826,0,0,1-1.159-.092c-.4-.187-.956-.775-1.855-2.462A2.822,2.822,0,0,1,18.067,17.09Z"/><path fill="url(#RhTrBlPNK9DGAspMrYtajY)" d="M20.165,21.818a.877.877,0,0,1,.152-.172.963.963,0,0,1,.416-.211h0a.936.936,0,0,1,.754.146c1.862.839,2.076,5,2.033,5.514l0,.113a.615.615,0,0,1-.336.552.64.64,0,0,1-.857-.216c-.029-.051-.056-.1-.085-.153l0,0C19.921,23.366,19.626,22.367,20.165,21.818Z"/><path fill="url(#RhTrBlPNK9DGAspMrYtajZ)" d="M22.786,29.625c.033-.341-.065-.37-.287-.71s-.441-1.79,0-1.986a.386.386,0,0,1,.359-.017c.2-.207.468-.367.705-.084.309.368.971,1.4,1.071,1.533a6.382,6.382,0,0,1,.315,2.022c-.052.555-.6.294-.705-.295s-.345-1.477-.772-1.661a.9.9,0,0,1-.221-.143c-.012.135-.027.227-.027.227a1.331,1.331,0,0,1,.136,1.276C23.227,30.21,22.742,30.077,22.786,29.625Z"/><g><path fill="#b56900" d="M7.869,26.7c-.276-.075-.59-.073-.647.292-.074.474-.2,1.261-.211,1.429a7.493,7.493,0,0,0,.859,2c.331.448.662-.056.451-.616s-.467-1.443-.2-1.822Z"/><path fill="#d18000" d="M7.8,27.178c-.275-.074-.59-.072-.647.292-.074.475-.2,1.261-.211,1.429a7.53,7.53,0,0,0,.859,2c.331.448.662-.056.452-.617s-.467-1.443-.2-1.821Z"/><path fill="url(#RhTrBlPNK9DGAspMrYtajaa)" d="M7.7,27.553c-.275-.075-.589-.073-.646.292-.075.474-.2,1.261-.211,1.429a7.517,7.517,0,0,0,.858,2c.331.448.663-.056.452-.616s-.467-1.443-.2-1.822Z"/><path fill="url(#RhTrBlPNK9DGAspMrYtajab)" d="M10.752,17.09a1.37,1.37,0,0,0-2.444.053,8.42,8.42,0,0,0-.427,1.106c-.064.187-.115.38-.171.569s-.1.385-.15.578l-.128.585c-.036.2-.079.392-.107.593A9.32,9.32,0,0,0,7.2,21.792a.825.825,0,0,0,1.45.563c.4-.187.957-.775,1.855-2.462A2.82,2.82,0,0,0,10.752,17.09Z"/><path fill="url(#RhTrBlPNK9DGAspMrYtajac)" d="M8.585,21.566a.924.924,0,0,0-.193-.124.952.952,0,0,0-.456-.091h0a.934.934,0,0,0-.687.344c-1.567,1.31-.651,5.375-.471,5.858l.027.109a.616.616,0,0,0,.473.441.64.64,0,0,0,.767-.438c.014-.057.026-.114.041-.171l0,0C9.238,22.992,9.252,21.951,8.585,21.566Z"/><path fill="url(#RhTrBlPNK9DGAspMrYtajad)" d="M8.889,29.788c-.2-.275-.135-.351-.12-.757s-.546-1.76-1.024-1.7a.389.389,0,0,0-.317.17c-.276-.074-.59-.072-.647.293-.074.474-.111,1.7-.126,1.865a6.4,6.4,0,0,0,.774,1.895c.331.448.662-.056.451-.617s-.466-1.443-.2-1.821a.877.877,0,0,0,.115-.236c.08.109.141.18.141.18a1.329,1.329,0,0,0,.542,1.163C8.814,30.516,9.16,30.152,8.889,29.788Z"/></g><path fill="url(#RhTrBlPNK9DGAspMrYtajae)" d="M20.864,17.871a2.83,2.83,0,0,1-1.722,1.06c-.209.044-.411.076-.6.1.212,1.92.51,4,.882,6.29a.459.459,0,0,1-.225.449,5.872,5.872,0,0,1-2.161.638,20.115,20.115,0,0,1-2.593.138,10.387,10.387,0,0,1-4.753-.776.465.465,0,0,1-.226-.449c.374-2.286.67-4.37.883-6.29-.193-.025-.4-.057-.6-.1a2.837,2.837,0,0,1-1.723-1.06.439.439,0,0,1-.071-.367c.176-.694.865-3.111,2.122-4.074a5.264,5.264,0,0,1,2.029-.842c.13-.028.259-.053.387-.076a11.024,11.024,0,0,1,3.913,0c.127.023.257.048.387.076a5.258,5.258,0,0,1,2.029.842c1.257.963,1.945,3.38,2.123,4.074A.436.436,0,0,1,20.864,17.871Z"/><path fill="url(#RhTrBlPNK9DGAspMrYtajaf)" d="M20.864,17.871a2.83,2.83,0,0,1-1.722,1.06c-.209.044-.411.076-.6.1.212,1.92.51,4,.882,6.29a.459.459,0,0,1-.225.449,5.872,5.872,0,0,1-2.161.638,20.115,20.115,0,0,1-2.593.138,10.387,10.387,0,0,1-4.753-.776.465.465,0,0,1-.226-.449c.374-2.286.67-4.37.883-6.29-.193-.025-.4-.057-.6-.1a2.837,2.837,0,0,1-1.723-1.06.439.439,0,0,1-.071-.367c.176-.694.865-3.111,2.122-4.074a5.264,5.264,0,0,1,2.029-.842c.13-.028.259-.053.387-.076a11.024,11.024,0,0,1,3.913,0c.127.023.257.048.387.076a5.258,5.258,0,0,1,2.029.842c1.257.963,1.945,3.38,2.123,4.074A.436.436,0,0,1,20.864,17.871Z"/><path fill="url(#RhTrBlPNK9DGAspMrYtajag)" d="M16.785,12.588a2.35,2.35,0,0,1-4.687,0c.13-.028.259-.053.387-.076a11.024,11.024,0,0,1,3.913,0C16.525,12.535,16.655,12.56,16.785,12.588Z"/><path fill="url(#RhTrBlPNK9DGAspMrYtajah)" d="M16.072,12.444V10.7H12.811v1.747c-.141.019-.177.041-.326.068a1.959,1.959,0,0,0,3.913,0C16.249,12.485,16.213,12.463,16.072,12.444Z"/><path fill="url(#RhTrBlPNK9DGAspMrYtajai)" d="M16.072,12.444V10.7H12.811v1.747c-.141.019-.177.041-.326.068a1.959,1.959,0,0,0,3.913,0C16.249,12.485,16.213,12.463,16.072,12.444Z"/><g><path fill="#5e1014" d="M10.821,15.1a5.007,5.007,0,0,0-.286,1.106c-.01.063-.02.127-.029.191-.052.364-.088.743-.111,1.1-.01.134-.017.264-.023.387-.031.633-.027,1.109-.027,1.124a3.188,3.188,0,0,1-.568-.064c-.068-.013-.134-.03-.2-.047a2.963,2.963,0,0,1-.868-.391,2.8,2.8,0,0,1-.3-.233,5,5,0,0,1,.541-1.206,5.549,5.549,0,0,1,.689-.89,8.59,8.59,0,0,1,.68-.637C10.526,15.359,10.7,15.217,10.821,15.1Z" opacity=".002"/><path fill="#5e1014" d="M10.821,15.1a4.985,4.985,0,0,0-.284,1.1c-.011.063-.02.126-.03.19-.051.361-.087.737-.111,1.088-.009.132-.017.261-.023.383-.03.618-.027,1.085-.028,1.117a1.794,1.794,0,0,1-.533-.028c-.066-.013-.129-.028-.19-.045a2.976,2.976,0,0,1-.846-.372,2.632,2.632,0,0,1-.293-.222A5.177,5.177,0,0,1,9,17.088a5.553,5.553,0,0,1,.666-.9,7.866,7.866,0,0,1,.66-.647C10.528,15.361,10.7,15.217,10.821,15.1Z" opacity=".004"/><path fill="#5e1014" d="M10.821,15.1a4.975,4.975,0,0,0-.283,1.086c-.01.062-.02.125-.029.188-.052.359-.087.732-.112,1.081-.009.13-.016.258-.022.379-.031.6-.029,1.062-.03,1.11a1.17,1.17,0,0,1-.5.008c-.064-.012-.126-.027-.185-.043a2.985,2.985,0,0,1-.823-.353,2.706,2.706,0,0,1-.287-.21,5.363,5.363,0,0,1,.5-1.227A5.562,5.562,0,0,1,9.7,16.2a7.681,7.681,0,0,1,.641-.658C10.53,15.364,10.7,15.218,10.821,15.1Z" opacity=".005"/><path fill="#5e1014" d="M10.821,15.1a4.969,4.969,0,0,0-.281,1.076c-.01.062-.02.124-.029.187-.052.355-.087.725-.112,1.072-.009.13-.017.256-.023.376-.03.587-.029,1.039-.03,1.1a.83.83,0,0,1-.463.045c-.061-.012-.121-.026-.179-.041a2.965,2.965,0,0,1-.8-.334,2.548,2.548,0,0,1-.281-.2A5.557,5.557,0,0,1,9.1,17.144a5.7,5.7,0,0,1,.618-.927,7.612,7.612,0,0,1,.621-.667C10.532,15.367,10.7,15.219,10.821,15.1Z" opacity=".007"/><path fill="#5e1014" d="M10.821,15.1a4.885,4.885,0,0,0-.279,1.067c-.011.061-.02.123-.029.185-.052.352-.088.719-.113,1.064-.009.128-.016.253-.023.372-.029.571-.029,1.016-.031,1.095a.615.615,0,0,1-.427.081c-.06-.011-.118-.025-.173-.039a3.012,3.012,0,0,1-.777-.315,2.791,2.791,0,0,1-.275-.187,5.886,5.886,0,0,1,.458-1.248,5.793,5.793,0,0,1,.6-.939,7.162,7.162,0,0,1,.6-.678C10.534,15.369,10.7,15.219,10.821,15.1Z" opacity=".009"/><path fill="#5e1014" d="M10.821,15.1a4.934,4.934,0,0,0-.278,1.057c-.01.06-.02.122-.029.183-.051.349-.087.713-.112,1.056-.009.127-.017.251-.023.369-.03.556-.031.992-.033,1.087a.483.483,0,0,1-.392.118c-.057-.011-.113-.023-.167-.037a3.08,3.08,0,0,1-.754-.3,2.558,2.558,0,0,1-.269-.176A6.089,6.089,0,0,1,9.2,17.2a5.9,5.9,0,0,1,.571-.951,6.863,6.863,0,0,1,.583-.688C10.536,15.372,10.7,15.22,10.821,15.1Z" opacity=".011"/><path fill="#5e1014" d="M10.821,15.1a4.87,4.87,0,0,0-.276,1.047c-.01.06-.02.121-.029.182-.051.346-.087.707-.113,1.048-.009.125-.017.248-.023.366-.029.539-.031.968-.034,1.079a.4.4,0,0,1-.356.154c-.055-.01-.109-.022-.161-.035a3.087,3.087,0,0,1-.731-.277,2.438,2.438,0,0,1-.263-.164,6.36,6.36,0,0,1,.417-1.269,6.03,6.03,0,0,1,.547-.963,6.607,6.607,0,0,1,.564-.7C10.538,15.375,10.7,15.22,10.821,15.1Z" opacity=".012"/><path fill="#5e1014" d="M10.821,15.1a4.791,4.791,0,0,0-.274,1.037c-.01.06-.02.12-.029.181-.052.343-.088.7-.113,1.04-.009.123-.017.245-.024.362-.028.523-.032.945-.034,1.071-.1.136-.211.214-.322.191-.053-.01-.105-.021-.155-.033a3.186,3.186,0,0,1-.708-.258,2.729,2.729,0,0,1-.257-.152,6.635,6.635,0,0,1,.4-1.28,6.051,6.051,0,0,1,.523-.975,6.475,6.475,0,0,1,.544-.709C10.54,15.377,10.7,15.221,10.821,15.1Z" opacity=".014"/><path fill="#5e1014" d="M10.821,15.1a4.842,4.842,0,0,0-.273,1.027c-.01.059-.019.119-.029.179-.051.34-.087.7-.113,1.032-.009.123-.017.243-.023.359-.029.508-.033.922-.036,1.064-.094.156-.188.247-.286.227-.051-.009-.1-.02-.15-.031a3.254,3.254,0,0,1-.685-.239,2.5,2.5,0,0,1-.25-.141,7.054,7.054,0,0,1,.375-1.29,6.338,6.338,0,0,1,.5-.987,6.253,6.253,0,0,1,.525-.72C10.543,15.38,10.7,15.222,10.821,15.1Z" opacity=".016"/><path fill="#5e1014" d="M10.821,15.1a4.778,4.778,0,0,0-.271,1.017c-.01.059-.02.118-.029.178-.051.337-.087.689-.113,1.024-.01.121-.017.24-.024.355-.028.492-.033.9-.037,1.056-.083.176-.165.281-.251.263-.049-.008-.1-.017-.143-.028a3.337,3.337,0,0,1-.662-.22,2.527,2.527,0,0,1-.245-.129,7.421,7.421,0,0,1,.355-1.3,6.523,6.523,0,0,1,.476-1,5.953,5.953,0,0,1,.506-.73A6.229,6.229,0,0,1,10.821,15.1Z" opacity=".018"/><path fill="#5e1014" d="M10.821,15.1a4.742,4.742,0,0,0-.269,1.007c-.01.059-.02.117-.029.177-.051.333-.088.683-.114,1.015-.009.12-.017.238-.024.352-.028.477-.034.875-.037,1.049-.073.2-.143.315-.216.3-.047-.007-.093-.016-.138-.026a3.445,3.445,0,0,1-.639-.2,2.42,2.42,0,0,1-.239-.118,7.912,7.912,0,0,1,.335-1.311A6.631,6.631,0,0,1,9.9,16.329a5.867,5.867,0,0,1,.486-.74A5.173,5.173,0,0,1,10.821,15.1Z" opacity=".019"/><path fill="#5e1014" d="M10.821,15.1a4.675,4.675,0,0,0-.268,1c-.01.058-.019.117-.028.176-.052.33-.088.676-.114,1.007-.01.118-.018.235-.025.348-.027.461-.034.852-.038,1.042-.062.216-.12.348-.181.335q-.066-.01-.132-.024a3.7,3.7,0,0,1-.616-.182c-.084-.033-.161-.07-.232-.106A8.336,8.336,0,0,1,9.5,17.369a6.825,6.825,0,0,1,.428-1.024,5.7,5.7,0,0,1,.467-.751A4.5,4.5,0,0,1,10.821,15.1Z" opacity=".021"/><path fill="#5e1014" d="M10.821,15.1a4.665,4.665,0,0,0-.266.988c-.01.057-.02.115-.029.173-.051.327-.087.671-.114,1q-.014.177-.024.345c-.027.446-.035.829-.04,1.034-.05.236-.1.383-.145.372s-.085-.014-.126-.022a4.05,4.05,0,0,1-.593-.163c-.081-.029-.157-.062-.227-.095A8.989,8.989,0,0,1,9.55,17.4a7.072,7.072,0,0,1,.4-1.036A5.472,5.472,0,0,1,10.4,15.6,3.909,3.909,0,0,1,10.821,15.1Z" opacity=".023"/><path fill="#5e1014" d="M10.821,15.1a4.585,4.585,0,0,0-.264.978c-.01.056-.02.114-.029.172-.051.324-.088.664-.114.991-.01.116-.018.23-.025.341-.027.43-.036.8-.041,1.027-.039.256-.073.416-.11.408l-.12-.02a4.482,4.482,0,0,1-.57-.144c-.078-.025-.152-.054-.22-.083A9.441,9.441,0,0,1,9.6,17.425a7.412,7.412,0,0,1,.381-1.049,5.433,5.433,0,0,1,.429-.771A3.439,3.439,0,0,1,10.821,15.1Z" opacity=".025"/><path fill="#5e1014" d="M10.821,15.1a4.639,4.639,0,0,0-.263.968c-.01.056-.019.113-.028.171-.051.321-.088.658-.115.983-.009.114-.018.227-.025.337-.026.415-.036.782-.041,1.019-.029.277-.051.45-.075.445s-.077-.012-.115-.018a5.1,5.1,0,0,1-.547-.125c-.075-.021-.147-.046-.214-.072a10.065,10.065,0,0,1,.252-1.352,7.591,7.591,0,0,1,.357-1.061,5.337,5.337,0,0,1,.409-.781A3.143,3.143,0,0,1,10.821,15.1Z" opacity=".026"/><path fill="#5e1014" d="M10.821,15.1a4.575,4.575,0,0,0-.261.958c-.01.056-.019.112-.029.169-.05.318-.087.653-.114.975-.01.113-.018.225-.025.334-.026.4-.038.759-.043,1.012a3.248,3.248,0,0,1-.04.481L10.2,19.01q-.259-.041-.524-.106c-.073-.018-.143-.038-.208-.06A10.794,10.794,0,0,1,9.7,17.481a7.829,7.829,0,0,1,.333-1.073,5.27,5.27,0,0,1,.39-.792A2.83,2.83,0,0,1,10.821,15.1Z" opacity=".028"/><path fill="#5e1014" d="M10.345,19.032c-.193-.025-.4-.057-.6-.1-.07-.014-.138-.03-.2-.049a11.846,11.846,0,0,1,.21-1.373,8.13,8.13,0,0,1,.311-1.085,5.02,5.02,0,0,1,.37-.8,2.591,2.591,0,0,1,.391-.525,5.07,5.07,0,0,0-.288,1.116c-.068.425-.112.879-.14,1.3C10.337,18.345,10.345,19.032,10.345,19.032Z" opacity=".03"/></g><g><path fill="#5e1014" d="M18.066,15.1a4.992,4.992,0,0,1,.286,1.1c.013.084.026.169.038.255.047.344.079.7.1,1.03.013.184.022.361.029.525.024.561.021.968.021.982.181-.011.371-.036.568-.064a1.434,1.434,0,0,0,.191-.037,2.923,2.923,0,0,0,.913-.42,2.553,2.553,0,0,0,.261-.205,5,5,0,0,0-.541-1.206,5.549,5.549,0,0,0-.689-.89,8.59,8.59,0,0,0-.68-.637C18.361,15.359,18.186,15.217,18.066,15.1Z" opacity=".002"/><path fill="#5e1014" d="M18.066,15.1a4.9,4.9,0,0,1,.283,1.091q.021.125.039.252c.046.34.079.691.1,1.02.013.181.022.356.029.519.024.545.022.944.022.973.171,0,.348-.014.534-.027a.931.931,0,0,0,.178-.025,2.93,2.93,0,0,0,.894-.4,2.462,2.462,0,0,0,.257-.2,5.177,5.177,0,0,0-.52-1.216,5.553,5.553,0,0,0-.666-.9,7.866,7.866,0,0,0-.66-.647C18.359,15.361,18.186,15.217,18.066,15.1Z" opacity=".004"/><path fill="#5e1014" d="M18.066,15.1a4.861,4.861,0,0,1,.281,1.078c.014.082.027.166.038.25.047.336.08.683.1,1.01.013.179.022.351.03.512.023.53.022.922.023.965.159.018.329-.024.5.01a.361.361,0,0,0,.167-.013,2.991,2.991,0,0,0,.875-.38,2.724,2.724,0,0,0,.253-.186,5.363,5.363,0,0,0-.5-1.227,5.562,5.562,0,0,0-.642-.914,7.681,7.681,0,0,0-.641-.658C18.357,15.364,18.187,15.218,18.066,15.1Z" opacity=".005"/><path fill="#5e1014" d="M18.066,15.1a4.88,4.88,0,0,1,.279,1.065c.014.082.026.165.038.248.047.332.08.676.1,1,.013.176.022.347.03.506.023.514.023.9.024.956a3.184,3.184,0,0,1,.464.046.235.235,0,0,0,.155,0,3.027,3.027,0,0,0,.855-.359,2.63,2.63,0,0,0,.249-.177,5.557,5.557,0,0,0-.479-1.237,5.7,5.7,0,0,0-.618-.927,7.612,7.612,0,0,0-.621-.667C18.355,15.367,18.188,15.219,18.066,15.1Z" opacity=".007"/><path fill="#5e1014" d="M18.066,15.1a4.854,4.854,0,0,1,.277,1.053c.013.08.026.162.038.245.047.328.08.668.1.99.013.174.023.342.03.5.023.5.024.876.026.947a3.2,3.2,0,0,0,.428.083.3.3,0,0,0,.143.011,3.1,3.1,0,0,0,.836-.34,2.338,2.338,0,0,0,.246-.166,5.886,5.886,0,0,0-.458-1.248,5.793,5.793,0,0,0-.595-.939,7.162,7.162,0,0,0-.6-.678C18.353,15.369,18.188,15.219,18.066,15.1Z" opacity=".009"/><path fill="#5e1014" d="M18.066,15.1a4.818,4.818,0,0,1,.275,1.04c.013.08.026.161.038.243.046.324.079.661.1.98.013.171.023.338.031.494.023.482.024.852.026.937a1.16,1.16,0,0,0,.394.121.166.166,0,0,0,.131.023,3.136,3.136,0,0,0,.816-.32,2.375,2.375,0,0,0,.243-.157,6.089,6.089,0,0,0-.438-1.258,5.9,5.9,0,0,0-.571-.951,6.863,6.863,0,0,0-.583-.688C18.351,15.372,18.189,15.22,18.066,15.1Z" opacity=".011"/><path fill="#5e1014" d="M18.066,15.1a4.777,4.777,0,0,1,.273,1.028c.013.078.026.159.037.239.047.322.08.654.1.971.013.169.023.333.031.487.023.467.025.83.028.929a.986.986,0,0,0,.358.158.134.134,0,0,0,.119.035,3.294,3.294,0,0,0,.8-.3,2.721,2.721,0,0,0,.238-.147,6.36,6.36,0,0,0-.417-1.269,6.03,6.03,0,0,0-.547-.963,6.737,6.737,0,0,0-.563-.7C18.349,15.375,18.189,15.22,18.066,15.1Z" opacity=".012"/><path fill="#5e1014" d="M18.066,15.1a4.745,4.745,0,0,1,.27,1.015c.014.078.026.157.038.237.047.318.08.647.1.961.013.166.023.328.031.481.023.451.026.807.029.92a.893.893,0,0,0,.324.194c.037.04.073.057.107.048a3.361,3.361,0,0,0,.778-.28,2.656,2.656,0,0,0,.235-.137,6.635,6.635,0,0,0-.4-1.28,6.051,6.051,0,0,0-.523-.975,6.475,6.475,0,0,0-.544-.709C18.347,15.377,18.19,15.221,18.066,15.1Z" opacity=".014"/><path fill="#5e1014" d="M18.066,15.1a4.726,4.726,0,0,1,.268,1c.014.078.026.156.038.235.046.314.08.64.1.951.013.164.023.324.032.475.022.435.026.783.03.911a.865.865,0,0,0,.289.231c.033.046.064.068.095.059a3.439,3.439,0,0,0,.758-.26,2.471,2.471,0,0,0,.231-.127,7.054,7.054,0,0,0-.375-1.29,6.338,6.338,0,0,0-.5-.987,6.253,6.253,0,0,0-.525-.72C18.344,15.38,18.191,15.222,18.066,15.1Z" opacity=".016"/><path fill="#5e1014" d="M18.066,15.1a4.686,4.686,0,0,1,.266.99c.013.076.026.154.038.232.046.31.08.632.1.941.013.161.024.319.032.469.022.419.027.76.031.9a.916.916,0,0,0,.254.268c.029.053.057.079.083.071a3.661,3.661,0,0,0,.739-.24,2.544,2.544,0,0,0,.228-.117,7.421,7.421,0,0,0-.355-1.3,6.523,6.523,0,0,0-.476-1,5.953,5.953,0,0,0-.506-.73A6.229,6.229,0,0,0,18.066,15.1Z" opacity=".018"/><path fill="#5e1014" d="M18.066,15.1a4.713,4.713,0,0,1,.264.977c.013.076.026.152.037.23.047.306.08.625.105.931.013.159.024.314.032.462.022.4.028.738.033.894a1.043,1.043,0,0,0,.219.3c.025.059.048.09.071.083a3.881,3.881,0,0,0,.719-.22c.081-.034.156-.071.225-.108a7.912,7.912,0,0,0-.335-1.311,6.631,6.631,0,0,0-.452-1.011,5.867,5.867,0,0,0-.486-.74A5.173,5.173,0,0,0,18.066,15.1Z" opacity=".019"/><path fill="#5e1014" d="M18.066,15.1a4.673,4.673,0,0,1,.262.965c.013.074.025.15.037.227.046.3.08.617.105.921.013.156.024.31.032.456.022.388.029.715.034.885a1.288,1.288,0,0,0,.184.341c.021.067.04.1.059.1a4.305,4.305,0,0,0,.7-.2c.079-.031.152-.064.22-.1a8.336,8.336,0,0,0-.314-1.321,6.825,6.825,0,0,0-.428-1.024,5.7,5.7,0,0,0-.467-.751A4.5,4.5,0,0,0,18.066,15.1Z" opacity=".021"/><path fill="#5e1014" d="M18.066,15.1a4.58,4.58,0,0,1,.259.952c.014.074.026.149.038.225.046.3.08.61.105.911.013.154.024.3.033.45.021.372.029.691.035.876a3.548,3.548,0,0,0,.149.378c.028.069.032.112.047.108a4.531,4.531,0,0,0,.681-.181c.077-.027.149-.057.217-.088a8.989,8.989,0,0,0-.293-1.331,7.072,7.072,0,0,0-.405-1.036,5.472,5.472,0,0,0-.448-.761A3.909,3.909,0,0,0,18.066,15.1Z" opacity=".023"/><path fill="#5e1014" d="M18.066,15.1a4.5,4.5,0,0,1,.257.939c.013.073.026.147.038.222.046.3.08.6.106.9.012.151.023.3.032.444.021.357.031.668.036.867.039.179.088.32.114.415.022.077.024.123.036.119a4.978,4.978,0,0,0,.661-.16c.075-.024.147-.051.213-.078a9.441,9.441,0,0,0-.272-1.342,7.412,7.412,0,0,0-.381-1.049,5.433,5.433,0,0,0-.429-.771A3.439,3.439,0,0,0,18.066,15.1Z" opacity=".025"/><path fill="#5e1014" d="M18.066,15.1a4.525,4.525,0,0,1,.255.927c.013.072.026.145.037.219.046.291.081.6.107.892.013.149.023.3.032.437.022.342.032.646.038.859.028.194.061.35.079.452.014.085.016.133.023.131a5.747,5.747,0,0,0,.642-.14q.111-.031.21-.069a10.065,10.065,0,0,0-.252-1.352,7.591,7.591,0,0,0-.357-1.061,5.337,5.337,0,0,0-.409-.781A3.143,3.143,0,0,0,18.066,15.1Z" opacity=".026"/><path fill="#5e1014" d="M18.066,15.1a4.493,4.493,0,0,1,.253.914c.013.071.025.144.037.217.046.288.08.588.107.881.013.147.024.292.033.432.021.326.032.623.038.85.018.209.035.378.044.488l.012.144c.2-.03.412-.069.623-.12.071-.018.14-.038.2-.059a10.794,10.794,0,0,0-.231-1.363,7.829,7.829,0,0,0-.333-1.073,5.27,5.27,0,0,0-.39-.792A2.83,2.83,0,0,0,18.066,15.1Z" opacity=".028"/><path fill="#5e1014" d="M18.542,19.032c.193-.025.395-.057.6-.1.07-.014.138-.03.2-.049a11.846,11.846,0,0,0-.21-1.373,8.29,8.29,0,0,0-.31-1.085,5.106,5.106,0,0,0-.371-.8,2.591,2.591,0,0,0-.391-.525,5.07,5.07,0,0,1,.288,1.116c.068.425.112.879.14,1.3C18.55,18.345,18.542,19.032,18.542,19.032Z" opacity=".03"/></g><g><path fill="url(#RhTrBlPNK9DGAspMrYtajk)" d="M17.864,8.807c-.146,0-.227-.056-.206-.183.042-.252.208-2,.208-2,.417,0,.97,0,.97.729C18.836,8.161,18.47,8.807,17.864,8.807Z"/><path fill="url(#RhTrBlPNK9DGAspMrYtajaj)" d="M11.057,8.807c.146,0,.227-.056.206-.183-.042-.252-.208-2-.208-2-.418,0-.97,0-.97.729C10.085,8.161,10.451,8.807,11.057,8.807Z"/><path fill="url(#RhTrBlPNK9DGAspMrYtajak)" d="M18.35,6.69a7.135,7.135,0,0,1-.407,2.773,4.511,4.511,0,0,1-3.483,2.261,4.478,4.478,0,0,1-3.5-2.261,7.119,7.119,0,0,1-.388-2.773c0-.2.005-.382.015-.558a5.285,5.285,0,0,1,.638-2.354A3.5,3.5,0,0,1,14.46,1.92a3.5,3.5,0,0,1,3.226,1.838A5.679,5.679,0,0,1,18.35,6.69Z"/><path style="isolation:isolate" d="M18.536,7.04c-.12.019-.1-.086-.1-.19a9.537,9.537,0,0,0-.133-1.712c-.01-.031-.09-.061-.117-.078a3.428,3.428,0,0,1-1.213-1.1.123.123,0,0,0-.136-.041,5.511,5.511,0,0,1-5-.471.122.122,0,0,0-.191.1,2.217,2.217,0,0,1-1.008,1.574.188.188,0,0,0-.074.137,13.449,13.449,0,0,1-.062,1.556c-.017.071-.031.148-.072.169h.006A.156.156,0,0,0,10.6,6.9a4.188,4.188,0,0,0,.392-1.412.152.152,0,0,1,.063-.111A2.383,2.383,0,0,0,11.96,4.2c.028-.085.068-.118.145-.076a5.821,5.821,0,0,0,4.513.318c.055-.017.139-.024.177.021a2.845,2.845,0,0,0,1.049.96.154.154,0,0,1,.077.076c.19.423.2,1.393.479,1.531a.147.147,0,0,0,.049.012l.014,0a.168.168,0,0,0,.071-.009h0Z" opacity=".1"/><path style="isolation:isolate" d="M18.534,6.991c-.119.02-.112-.086-.112-.189a9.489,9.489,0,0,0-.136-1.713c-.01-.031-.071-.06-.1-.076a3.427,3.427,0,0,1-1.212-1.1.127.127,0,0,0-.137-.041A5.505,5.505,0,0,1,11.847,3.4a.122.122,0,0,0-.19.1,2.223,2.223,0,0,1-1.008,1.573.165.165,0,0,0-.066.13,14.164,14.164,0,0,1-.057,1.576.238.238,0,0,1-.085.155h0l0,0,0,0a.156.156,0,0,0,.15-.091,4.057,4.057,0,0,0,.33-1.4.152.152,0,0,1,.063-.11A2.531,2.531,0,0,0,11.922,4.1c.025-.087.067-.118.145-.076a5.952,5.952,0,0,0,4.578.354c.056-.017.139-.024.177.022a2.792,2.792,0,0,0,1.05.947.16.16,0,0,1,.076.076c.191.424.172,1.426.451,1.564A.207.207,0,0,0,18.448,7l.014,0a.165.165,0,0,0,.07-.009h0Z" opacity=".1"/><path style="isolation:isolate" d="M18.532,6.943c-.119.02-.127-.086-.127-.19a9.523,9.523,0,0,0-.14-1.712.174.174,0,0,0-.079-.075,3.439,3.439,0,0,1-1.211-1.1.125.125,0,0,0-.136-.042,5.5,5.5,0,0,1-4.99-.47.122.122,0,0,0-.191.1,2.217,2.217,0,0,1-1.007,1.572.148.148,0,0,0-.057.125,14.8,14.8,0,0,1-.053,1.594.215.215,0,0,1-.1.142h.005l0,0,0,0A.156.156,0,0,0,10.6,6.8a3.96,3.96,0,0,0,.267-1.386A.156.156,0,0,1,10.93,5.3,2.659,2.659,0,0,0,11.883,4c.023-.087.068-.118.145-.076a6.091,6.091,0,0,0,4.644.392c.056-.018.139-.025.177.021a2.731,2.731,0,0,0,1.05.934.156.156,0,0,1,.077.077c.19.423.142,1.457.421,1.595a.207.207,0,0,0,.049.012l.014,0a.165.165,0,0,0,.07-.008h0Z" opacity=".1"/><path style="isolation:isolate" d="M18.53,6.9c-.119.02-.143-.087-.142-.19a9.578,9.578,0,0,0-.144-1.713.14.14,0,0,0-.059-.074,3.407,3.407,0,0,1-1.211-1.1.124.124,0,0,0-.136-.041,5.5,5.5,0,0,1-4.988-.47.122.122,0,0,0-.191.1,2.216,2.216,0,0,1-1.006,1.571A.13.13,0,0,0,10.6,5.1a15.579,15.579,0,0,1-.048,1.614.2.2,0,0,1-.111.128h0l0,0,0,0a.158.158,0,0,0,.15-.092c.2-.253.167-1.048.206-1.373a.151.151,0,0,1,.062-.111,2.8,2.8,0,0,0,.975-1.377c.02-.088.068-.118.145-.076a6.228,6.228,0,0,0,4.71.429c.056-.017.139-.024.177.021a2.677,2.677,0,0,0,1.051.922A.156.156,0,0,1,18,5.262c.191.423.113,1.49.392,1.628a.207.207,0,0,0,.049.012l.014,0a.165.165,0,0,0,.07-.009h0Z" opacity=".1"/><path fill="url(#RhTrBlPNK9DGAspMrYtajal)" d="M10.68,6.88a12.779,12.779,0,0,0,.014-1.613,2.152,2.152,0,0,0,1-1.851,5.449,5.449,0,0,0,5.159.554,4.092,4.092,0,0,0,1.294,1.223,7.315,7.315,0,0,1,.16,1.661c-.016.186.187.307.3-.081a14.389,14.389,0,0,0,.214-1.888C18.866,3.322,18.278,1,14.414,1c-3.748,0-4.345,2.333-4.345,3.921a10.913,10.913,0,0,0,.172,1.852C10.284,7.005,10.621,7.081,10.68,6.88Z"/><path fill="#4b2a0e" d="M11.334,2.866a2.187,2.187,0,0,1-.786,1.957,1.207,1.207,0,0,0-.112.082.154.154,0,0,0-.058.129c-.008.362-.009,1.007.024,1.38.008.1.016.192.028.271a.685.685,0,0,0,.053.212.106.106,0,0,0,.081.062c.043.016.094-.016.117-.113,0-.056.051-1.1.011-1.5a.16.16,0,0,1,.072-.121,2.083,2.083,0,0,0,.963-1.444.165.165,0,0,1,.21-.133.885.885,0,0,1,.114.065,5.54,5.54,0,0,0,4.705.374.174.174,0,0,1,.15.026c.016.014.032.028.048.044.03.031.063.068.089.1a2.994,2.994,0,0,0,1.021.872.269.269,0,0,1,.086.085q.015.035.03.075a.455.455,0,0,1,.018.059l.007.026a4.365,4.365,0,0,1,.057.441,9.751,9.751,0,0,1,.041,1,.2.2,0,0,0,.076.192h0a.054.054,0,0,0,.033,0,.088.088,0,0,0,.058-.047.473.473,0,0,0,.051-.144,3.132,3.132,0,0,0,.044-.429,6.337,6.337,0,0,0-.115-1.646A.13.13,0,0,0,18.4,4.68l-.017-.01a6.615,6.615,0,0,1-1.368-1.448.129.129,0,0,0-.137-.04,6.587,6.587,0,0,1-5.29-.453A.18.18,0,0,0,11.334,2.866Z" opacity=".167"/><path fill="#4b2a0e" d="M11.371,2.96a2.1,2.1,0,0,1-.815,1.909.393.393,0,0,0-.1.091.187.187,0,0,0-.044.132c0,.381,0,1.048.022,1.346.006.1.013.192.023.271.01.1.04.21.054.2.024.023.051.043.08.031.035.013.076-.026.1-.124s.051-1.091.012-1.47a.152.152,0,0,1,.068-.119A2.092,2.092,0,0,0,11.73,3.8a.174.174,0,0,1,.194-.145.488.488,0,0,1,.123.06,5.531,5.531,0,0,0,4.685.384.2.2,0,0,1,.148.012.4.4,0,0,1,.054.034c.028.027.066.067.09.1a2.977,2.977,0,0,0,1.009.874.308.308,0,0,1,.088.08c.014.021.027.045.041.069a.424.424,0,0,1,.024.057l.007.026a4.025,4.025,0,0,1,.061.428c.038.392.048.837.044,1a.245.245,0,0,0,.063.2h0A.062.062,0,0,0,18.39,7a.052.052,0,0,0,.053-.019.342.342,0,0,0,.059-.11,1.772,1.772,0,0,0,.051-.419,6.908,6.908,0,0,0-.13-1.663.121.121,0,0,0-.053-.067l-.016-.011a5.8,5.8,0,0,1-1.342-1.364.128.128,0,0,0-.137-.04,6.494,6.494,0,0,1-5.264-.478A.17.17,0,0,0,11.371,2.96Z" opacity=".333"/><path fill="#4b2a0e" d="M11.408,3.054a2.021,2.021,0,0,1-.844,1.861.256.256,0,0,0-.126.234c.007.4,0,1.09.02,1.314,0,.094.01.19.018.27.008.1.034.205.056.2.028.011.053.024.079,0,.026.01.058-.035.074-.135.009-.167.05-1.086.014-1.442a.142.142,0,0,1,.062-.117,2.094,2.094,0,0,0,.972-1.409c0-.061.09-.171.179-.157a.291.291,0,0,1,.13.055,5.527,5.527,0,0,0,4.666.392.273.273,0,0,1,.147,0,.212.212,0,0,1,.058.026.792.792,0,0,1,.092.091,2.973,2.973,0,0,0,1,.878.4.4,0,0,1,.09.074l.052.064a.239.239,0,0,1,.029.055.184.184,0,0,1,.009.025,3.524,3.524,0,0,1,.063.415c.039.376.05.811.049,1a.326.326,0,0,0,.049.211v0a.1.1,0,0,0,.022.026.041.041,0,0,0,.048.008c.02-.009.038-.031.066-.075a1.116,1.116,0,0,0,.059-.409,7.62,7.62,0,0,0-.145-1.68.126.126,0,0,0-.05-.066l-.017-.01a5.118,5.118,0,0,1-1.315-1.281.13.13,0,0,0-.137-.041,6.407,6.407,0,0,1-5.239-.5A.158.158,0,0,0,11.408,3.054Z" opacity=".5"/><path fill="#4b2a0e" d="M11.445,3.149a1.948,1.948,0,0,1-.873,1.812.176.176,0,0,0-.088.109.379.379,0,0,0-.016.137c.015.419,0,1.131.017,1.28.005.093.008.189.014.27.007.105.029.2.057.186s.057.005.078-.032c.018.007.04-.045.053-.146A14.094,14.094,0,0,0,10.7,5.351a.134.134,0,0,1,.058-.115,2.1,2.1,0,0,0,.976-1.392c0-.048.072-.169.163-.169a.234.234,0,0,1,.139.051,5.529,5.529,0,0,0,4.647.4.408.408,0,0,1,.144-.017.155.155,0,0,1,.064.018.592.592,0,0,1,.094.087,2.962,2.962,0,0,0,.984.881.67.67,0,0,1,.093.068l.062.059a.2.2,0,0,1,.034.052.109.109,0,0,1,.01.025,2.9,2.9,0,0,1,.066.4c.04.36.051.785.053,1a.537.537,0,0,0,.035.221v0a.15.15,0,0,0,.016.036c.013.02.024.034.043.036s.041-.008.075-.04a.738.738,0,0,0,.066-.4,8.475,8.475,0,0,0-.16-1.7.123.123,0,0,0-.047-.063L18.3,4.785a4.448,4.448,0,0,1-1.289-1.2.129.129,0,0,0-.137-.04,6.322,6.322,0,0,1-5.214-.525A.146.146,0,0,0,11.445,3.149Z" opacity=".667"/><path fill="#4b2a0e" d="M11.483,3.243a1.888,1.888,0,0,1-.9,1.764.146.146,0,0,0-.08.118.9.9,0,0,0,0,.139c.023.439.009,1.173.015,1.247,0,.091,0,.189.009.27.006.108.023.2.059.178s.059-.014.077-.063c.009,0,.022-.056.031-.158a13.523,13.523,0,0,0,.017-1.386.126.126,0,0,1,.052-.113,2.108,2.108,0,0,0,.981-1.374c0-.035.054-.168.147-.182a.194.194,0,0,1,.147.047,5.525,5.525,0,0,0,4.628.409.96.96,0,0,1,.143-.03.124.124,0,0,1,.068.009.44.44,0,0,1,.1.082,2.983,2.983,0,0,0,.971.885,1.116,1.116,0,0,1,.1.062l.072.054a.15.15,0,0,1,.04.05.167.167,0,0,1,.012.023,2.565,2.565,0,0,1,.068.39c.041.344.053.758.058,1a1.053,1.053,0,0,0,.021.232v0a.311.311,0,0,0,.01.046.126.126,0,0,0,.038.064.079.079,0,0,0,.082,0c.035-.029.078-.11.075-.39A9.678,9.678,0,0,0,18.336,4.9a.118.118,0,0,0-.044-.061l-.017-.012a3.874,3.874,0,0,1-1.263-1.114.13.13,0,0,0-.137-.041,6.235,6.235,0,0,1-5.188-.549A.136.136,0,0,0,11.483,3.243Z" opacity=".833"/><path fill="#4b2a0e" d="M18.307,4.933a.124.124,0,0,0-.058-.071A3.373,3.373,0,0,1,17.012,3.83a.129.129,0,0,0-.137-.04,6.152,6.152,0,0,1-5.163-.573.125.125,0,0,0-.192.12,1.832,1.832,0,0,1-.932,1.716.13.13,0,0,0-.073.127c.047.422.026,1.356.026,1.356.006.207-.01.475.065.438a.114.114,0,0,0,.075-.094s.069-1.15.028-1.527a.119.119,0,0,1,.048-.111,2.114,2.114,0,0,0,.985-1.357c0-.031.071-.308.287-.151a5.566,5.566,0,0,0,4.749.373.125.125,0,0,1,.074,0,.348.348,0,0,1,.1.079,3.067,3.067,0,0,0,1.14.993.135.135,0,0,1,.045.047.142.142,0,0,1,.014.023,2.313,2.313,0,0,1,.07.377c.06.467.061,1.091.07,1.237v0a.366.366,0,0,0,0,.057.215.215,0,0,0,.033.091.089.089,0,0,0,.09.03c.038-.006.088-.074.082-.38A11.348,11.348,0,0,0,18.307,4.933Z"/><ellipse cx="14.46" cy="8.321" fill="url(#RhTrBlPNK9DGAspMrYtajam)" rx=".851" ry=".486"/><ellipse cx="14.46" cy="8.321" fill="url(#RhTrBlPNK9DGAspMrYtajan)" rx=".436" ry=".243"/><path fill="url(#RhTrBlPNK9DGAspMrYtajao)" d="M15.13,8.622a1.3,1.3,0,0,1-1.339,0c-.07-.036-.117-.019-.117.048a.807.807,0,0,0,1.572,0C15.246,8.6,15.2,8.586,15.13,8.622Z"/><g><path fill="url(#RhTrBlPNK9DGAspMrYtajap)" d="M14.448,10.464c-1.01,0-1.045-.591-1.045-.591s.025,1.181,1.045,1.181,1.045-1.181,1.045-1.181S15.459,10.464,14.448,10.464Z"/><path fill="url(#RhTrBlPNK9DGAspMrYtajaq)" d="M15.569,9.78s.014.729-1.109.729-1.109-.729-1.109-.729S13.6,10,14.46,10,15.569,9.78,15.569,9.78Z"/><path fill="url(#RhTrBlPNK9DGAspMrYtajar)" d="M13.427,9.78c-.06,0-.095.05-.066.091a1.418,1.418,0,0,0,1.1.395,1.376,1.376,0,0,0,1.1-.395c.029-.041-.006-.091-.066-.091Z"/></g><g><path fill="#6b481d" d="M11.544,7.237c-.007.107.017.1.06.151,0,0,.487.64,1.954.2.107-.036.183-.1.172-.187A1.11,1.11,0,0,0,11.544,7.237Z"/><path fill="#fff" d="M11.567,7.223a.217.217,0,0,0,0,.2,1.264,1.264,0,0,0,2.078.218.189.189,0,0,0,.077-.219,1.178,1.178,0,0,0-1.084-.8A1.131,1.131,0,0,0,11.567,7.223Z"/><circle cx="12.637" cy="7.227" r=".608" fill="url(#RhTrBlPNK9DGAspMrYtajo)"/><circle cx="12.637" cy="7.227" r=".308" fill="url(#RhTrBlPNK9DGAspMrYtajas)"/><path fill="#6b481d" d="M17.376,7.235c.007.107-.016.1-.06.151,0,0-.486.643-1.954.2-.106-.036-.182-.105-.171-.188A1.108,1.108,0,0,1,17.376,7.235Z"/><path fill="#fff" d="M17.354,7.223a.217.217,0,0,1,0,.2,1.265,1.265,0,0,1-2.079.218.191.191,0,0,1-.077-.219,1.18,1.18,0,0,1,1.085-.8A1.132,1.132,0,0,1,17.354,7.223Z"/><circle cx="16.284" cy="7.227" r=".608" fill="url(#RhTrBlPNK9DGAspMrYtajat)"/><circle cx="16.284" cy="7.227" r=".308" fill="url(#RhTrBlPNK9DGAspMrYtajau)"/><circle cx="12.394" cy="6.984" r=".122" fill="#fff"/><circle cx="16.04" cy="6.984" r=".122" fill="#fff"/><path fill="#6b481d" d="M11.93,5.912a3.162,3.162,0,0,1,.329-.109c.11-.03.22-.055.33-.078a6.611,6.611,0,0,1,.671-.1h0a.248.248,0,1,1,.046.494.193.193,0,0,1-.048,0,6.044,6.044,0,0,0-.631-.03c-.106,0-.211,0-.316.012s-.213.021-.306.038l-.009,0a.121.121,0,0,1-.068-.232Z"/><path fill="#6b481d" d="M16.883,6.114c-.1-.012-.207-.02-.312-.025s-.212-.005-.319,0q-.319.006-.637.037a.248.248,0,0,1-.049-.494.4.4,0,0,1,.049,0q.336.031.669.09.165.03.33.069c.111.026.216.054.331.092a.122.122,0,0,1-.054.236Z"/></g></g></svg>